<?xml version="1.0" encoding="UTF-8"?>
<!DOCTYPE svg PUBLIC "-//W3C//DTD SVG 1.1//EN" "http://www.w3.org/Graphics/SVG/1.1/DTD/svg11.dtd">
<!-- Creator: CorelDRAW -->
<svg xmlns="http://www.w3.org/2000/svg" xml:space="preserve" width="2048px" height="2048px" style="shape-rendering:geometricPrecision; text-rendering:geometricPrecision; image-rendering:optimizeQuality; fill-rule:evenodd; clip-rule:evenodd"
viewBox="0 0 2048 2048"
 xmlns:xlink="http://www.w3.org/1999/xlink">
 <defs>
  <style type="text/css">
   <![CDATA[
    .fil3 {fill:none}
    .fil2 {fill:#BBBBBC}
    .fil0 {fill:#F4F4F5}
    .fil1 {fill:#939393;fill-rule:nonzero}
   ]]>
  </style>
 </defs>
 <g id="Layer_x0020_1">
  <metadata id="CorelCorpID_0Corel-Layer"/>
  <rect class="fil0" x="800" y="1184" width="485.125" height="542.261"/>
  <path class="fil1" d="M1265.19 472.666l-112.678 65.0552 -96.7135 55.8378 0 63.0095c0,18.4382 -14.948,33.3862 -33.3874,33.3862 -18.4382,0 -33.3862,-14.948 -33.3862,-33.3862 0,-133.569 0.72756,-267.068 0.72756,-400.57l50.0811 28.9146 225.357 130.11 49.9193 28.8213 -49.9193 28.8213z"/>
  <polygon class="fil2" points="1024,1191.99 823.684,1191.99 823.684,1692.78 823.684,1726.17 790.297,1726.17 289.713,1726.17 256.479,1726.17 256.456,1692.78 256.008,992.56 255.995,969.57 277.396,961.391 1024,657.84 1024,657.934 1024.23,657.84 1025.11,658.199 1771.12,961.739 1792,970.115 1791.99,992.649 1791.69,1692.87 1791.67,1726.26 1758.43,1726.26 1257.7,1726.26 1224.32,1726.26 1224.32,1692.87 1224.32,1192.08 1024.66,1192.08 1024,1192.08 "/>
  <rect class="fil3" x="255.999" y="255.999" width="1536" height="1536"/>
  <path class="fil0" d="M969.135 1000.79c14.1543,14.1473 33.4193,23.2382 54.8622,24.3319l0.804331 0.0354331c1.18228,0.0496063 2.37166,0.0755906 3.56693,0.0755906 23.0646,0 43.9465,-9.34489 59.0575,-24.4559 15.1099,-15.1122 24.4559,-35.9929 24.4559,-59.0587 0,-23.1933 -9.34253,-44.1343 -24.4465,-59.2465 -15.0354,-15.0473 -35.9138,-24.3496 -59.067,-24.3496 -1.14803,0 -2.29016,0.0248032 -3.42638,0.0696851l-0.944883 0.0425197c-21.3673,1.09724 -40.5933,10.1917 -54.7477,24.3484 -15.1134,15.1158 -24.4547,36.0213 -24.4547,59.1355 0,23.1567 9.29764,44.0374 24.3402,59.0717z"/>
  <polygon class="fil0" points="1391.25,1292.14 1624.95,1292.14 1624.95,1525.85 1391.25,1525.85 "/>
  <polygon class="fil0" points="423.05,1292.14 656.752,1292.14 656.752,1525.85 423.05,1525.85 "/>
  <rect class="fil3" width="2048" height="2048"/>
 </g>
</svg>
