<?xml version="1.0" encoding="UTF-8"?>
<!DOCTYPE svg PUBLIC "-//W3C//DTD SVG 1.1//EN" "http://www.w3.org/Graphics/SVG/1.1/DTD/svg11.dtd">
<!-- Creator: CorelDRAW -->
<svg xmlns="http://www.w3.org/2000/svg" xml:space="preserve" width="2048px" height="2048px" style="shape-rendering:geometricPrecision; text-rendering:geometricPrecision; image-rendering:optimizeQuality; fill-rule:evenodd; clip-rule:evenodd"
viewBox="0 0 2048 2048"
 xmlns:xlink="http://www.w3.org/1999/xlink">
 <defs>
  <style type="text/css">
   <![CDATA[
    .fil0 {fill:none}
    .fil2 {fill:#919191}
    .fil3 {fill:#B6B6B6}
    .fil5 {fill:gray;fill-rule:nonzero}
    .fil4 {fill:#919191;fill-rule:nonzero}
    .fil1 {fill:#ABABAB;fill-rule:nonzero}
   ]]>
  </style>
 </defs>
 <g id="Layer_x0020_1">
  <metadata id="CorelCorpID_0Corel-Layer"/>
  <rect class="fil0" x="255.999" y="256" width="1536" height="1536"/>
  <g id="_493159288">
   <polygon id="_493164256" class="fil1" points="256.002,807.682 668.437,1105.16 642.342,1148.06 "/>
   <path id="_493161448" class="fil2" d="M1322.8 1068.38l-0.660237 -1.08307 -89.5465 -147.164 -108.313 0c0,0 -250.52,-3.2563 -268.663,212.841l0 28.2839 -97.8627 -66.8812 -11.4236 -7.97717c-97.356,-75.4973 -191.945,45.4571 -118.66,118.725 0.154725,0.155906 54.3508,36.8563 54.3508,36.8563l75.6745 50.5642 143.914 95.8371c48.6461,30.0981 120.163,-10.8284 120.163,-73.3879l0 -147.975 79.9158 0 -0.161811 354.398 221.121 0 0.151181 0 0 -453.037z"/>
   <path id="_493178608" class="fil3" d="M1519.46 920.131l-104.027 0 -91.6158 149.916 -1.01457 -1.6689 0 453.037 223.36 0 -0.174803 -352.235 79.8839 0c0,94.6087 0,189.219 0,283.827 0,109.856 166.071,109.482 166.071,0l0 -320.114c0.0696851,0 10.1327,-207.53 -272.483,-212.763z"/>
   <path id="_493157992" class="fil4" d="M1322.8 916.948c55.8059,0 106.334,-22.624 142.906,-59.1993 36.5752,-36.5729 59.1993,-87.1016 59.1993,-142.908 0,-55.8036 -22.624,-106.33 -59.1993,-142.906 -36.574,-36.574 -87.1028,-59.1969 -142.906,-59.1969l0 404.21z"/>
   <path id="_493158808" class="fil5" d="M1322.8 512.738l-1.27913 0.00708662c-55.2957,0.34252 -105.332,22.8969 -141.626,59.1898 -36.5764,36.5764 -59.1993,87.1028 -59.1993,142.906 0,55.8048 22.6229,106.332 59.1981,142.908 36.3945,36.3945 86.6044,58.9725 142.08,59.1945l0.826772 0.00472441 0 -404.21z"/>
  </g>
  <rect class="fil0" width="2048" height="2048"/>
 </g>
</svg>
