<?xml version="1.0" encoding="UTF-8"?>
<!DOCTYPE svg PUBLIC "-//W3C//DTD SVG 1.1//EN" "http://www.w3.org/Graphics/SVG/1.1/DTD/svg11.dtd">
<!-- Creator: CorelDRAW -->
<svg xmlns="http://www.w3.org/2000/svg" xml:space="preserve" width="2048px" height="2048px" style="shape-rendering:geometricPrecision; text-rendering:geometricPrecision; image-rendering:optimizeQuality; fill-rule:evenodd; clip-rule:evenodd"
viewBox="0 0 2048 2048"
 xmlns:xlink="http://www.w3.org/1999/xlink">
 <defs>
  <style type="text/css">
   <![CDATA[
    .fil0 {fill:none}
    .fil1 {fill:#414141}
    .fil7 {fill:#757575}
    .fil4 {fill:#888888}
    .fil5 {fill:#8B8C8C}
    .fil3 {fill:#B7B7B7}
    .fil2 {fill:#BEBEBE}
    .fil6 {fill:#DBDBDB}
    .fil8 {fill:#757575;fill-rule:nonzero}
   ]]>
  </style>
 </defs>
 <g id="Layer_x0020_1">
  <metadata id="CorelCorpID_0Corel-Layer"/>
  <rect class="fil0" x="255.999" y="255.999" width="1536" height="1536"/>
  <g id="_493158496">
   <path id="_493179712" class="fil1" d="M1177.83 982.217c24.6142,24.7725 39.828,58.8685 39.828,96.2788 0,37.4103 -15.2138,71.5075 -39.8292,96.2788 -24.6083,24.7677 -58.5343,40.1386 -95.9894,40.1386 -37.5567,0 -71.6741,-15.3354 -96.3757,-40.0406 -24.7051,-24.7028 -40.0418,-58.8189 -40.0418,-96.3768 0,-37.5567 15.3343,-71.6729 40.0418,-96.3768 24.7016,-24.7051 58.8189,-40.0406 96.3757,-40.0406 37.4563,0 71.3788,15.3709 95.9906,40.1386z"/>
   <path id="_493174288" class="fil1" d="M1131.98 1078.5c0,-14.126 -5.62678,-26.8819 -14.7272,-36.0414 -9.01536,-9.07205 -21.528,-14.7036 -35.4189,-14.7036 -13.9063,0 -26.5866,5.72245 -35.804,14.941 -9.21733,9.21615 -14.941,21.8953 -14.941,35.804 0,13.9063 5.72245,26.5866 14.941,35.804 9.21733,9.21969 21.8977,14.941 35.804,14.941 13.8898,0 26.4036,-5.6315 35.4166,-14.7036 9.10276,-9.15946 14.7295,-21.9166 14.7295,-36.0414z"/>
   <path id="_493169320" class="fil1" d="M696.232 1276.04c30.7713,-30.737 73.1209,-49.8248 119.914,-49.8248 46.9016,0 89.4083,19.0736 120.26,49.78 31.004,30.8575 50.1756,73.3855 50.1756,120.054 0,46.9618 -19.0725,89.5654 -49.9252,120.451 -30.9284,30.9626 -73.5308,50.1213 -120.51,50.1213 -46.6666,0 -89.1698,-19.2059 -120.005,-50.2264 -30.7158,-30.9012 -49.7941,-73.4611 -49.7941,-120.346 0,-46.7481 19.0051,-89.2914 49.8012,-120.093l0.0838583 0.0838583z"/>
   <path id="_493163872" class="fil1" d="M816.146 1311.89c-23.3563,0 -44.3327,9.37796 -59.426,24.4736l0 0.167717c-15.2728,15.2752 -24.7004,36.3626 -24.7004,59.5205 0,23.5347 9.463,44.7839 24.6945,60.1087 15.2185,15.3118 36.2634,24.7914 59.4319,24.7914 23.5276,0 44.7059,-9.43702 59.9374,-24.6862 15.3402,-15.3567 24.8256,-36.6496 24.8256,-60.2138 0,-23.2016 -9.45355,-44.2678 -24.7406,-59.4815 -15.2941,-15.2232 -36.5044,-24.6803 -60.0225,-24.6803z"/>
   <path id="_493156168" class="fil1" d="M1067.5 1589.66c-31.461,-31.4492 -51.0095,-74.7508 -51.0095,-122.487 0,-47.8618 19.4835,-91.167 50.8394,-122.523 31.4433,-31.4457 74.8642,-50.8937 122.576,-50.8937 47.7674,0 91.1918,19.428 122.693,50.8394 31.5366,31.4516 51.0863,74.7863 51.0863,122.577 0,47.7792 -19.5508,91.1009 -51.0874,122.539 -31.5024,31.4044 -74.9268,50.8276 -122.692,50.8276 -47.5973,0 -90.9615,-19.4469 -122.406,-50.8796z"/>
   <path id="_493181032" class="fil1" d="M1102.16 1467.17c0,24.2705 9.80079,46.1492 25.5732,61.9158 15.9331,15.9248 37.9548,25.7788 62.1697,25.7788 24.411,0 46.5095,-9.8315 62.4544,-25.7268 15.8351,-15.7854 25.6524,-37.6855 25.6524,-61.9678 0,-24.3012 -9.81733,-46.213 -25.6512,-62.0044 -15.9461,-15.9024 -38.0457,-25.7386 -62.4556,-25.7386 -24.1028,0 -46.0701,9.85749 -62.0032,25.7929 -15.8752,15.8752 -25.7398,37.774 -25.7398,61.95z"/>
   <path id="_493160248" class="fil2" d="M1024 1792.02l-461.446 0c-26.1555,0 -49.9961,-3.90945 -71.4355,-11.1319 -40.1941,-13.5402 -70.4504,-38.3209 -90.7253,-70.7434 -19.4599,-31.1197 -29.1957,-68.6894 -29.1957,-109.391 0,-30.5516 5.61142,-63.2871 16.8378,-96.6107l1.05827 -3.13937 1.28504 -2.54882c0.466536,-0.923623 158.751,-315.17 416.44,-739.499l0 -459.403 0 -42.8363 42.8363 0 174.345 0 0 1535.3z"/>
   <path id="_493158904" class="fil3" d="M1235.18 758.95c257.668,424.111 421.641,736.687 422.122,737.604l1.49882 2.85118 1.17874 3.5067c11.2181,33.3508 16.8272,66.1642 16.8272,96.8198 0,40.8957 -9.77245,78.7241 -29.3055,110.078 -20.3244,32.6197 -50.6918,57.567 -91.0631,71.1473 -21.3319,7.17638 -45.0213,11.061 -70.9772,11.061l-461.411 0 -0.0448819 0 0 -1535.3 1.49764 0 166.841 0 42.8363 0 0 42.8363 0 459.401z"/>
   <path id="_493172800" class="fil4" d="M537.396 1306.71c-37.8071,69.319 -75.5942,139.306 -111.157,209.824l-0.145276 0.429922c-9.03426,26.8193 -14.7366,55.4197 -14.7366,83.7898 0,30.7618 6.63662,61.7941 23.0858,88.0997 16.428,26.2725 40.1374,44.0882 69.4973,53.9776 18.8693,6.35788 38.7425,9.03072 58.6146,9.03072l922.902 0c19.7244,0 39.4406,-2.66221 58.1729,-8.96339 29.5217,-9.93308 53.3138,-27.8882 69.7831,-54.3237 16.5343,-26.537 23.2311,-57.8339 23.2311,-88.8402 0,-28.4481 -5.68465,-57.1205 -14.7319,-84.0178l-0.159449 -0.470079c-36.9296,-70.2367 -75.4701,-139.938 -114.138,-209.223 -67.917,87.0768 -749.457,-1.86496 -970.218,0.686221z"/>
   <circle id="_493168648" class="fil5" cx="1010.82" cy="987.177" r="80.0214"/>
   <circle id="_493155256" class="fil5" cx="1139.32" cy="1244.19" r="48.4827"/>
   <circle id="_493151680" class="fil6" cx="778.541" cy="1505.93" r="80.0214"/>
   <circle id="_493165792" class="fil6" cx="1070.76" cy="1438.42" r="42.5728"/>
   <circle id="_493172848" class="fil6" cx="1278.78" cy="1551.77" r="64.2525"/>
   <path id="_493162936" class="fil7" d="M765.283 255.984l517.437 0c22.0878,0 40.1563,12.3272 40.1563,27.3933l0 3.65551c0,15.0662 -18.0709,27.3933 -40.1563,27.3933l-517.437 0c-22.0855,0 -40.1563,-12.326 -40.1563,-27.3933l0 -3.65551c0,-15.0673 18.0697,-27.3933 40.1563,-27.3933z"/>
   <path id="_493169128" class="fil8" d="M861.516 369.698c-4.61339,0 -8.35394,7.19174 -8.35394,16.063 0,8.87127 3.74055,16.063 8.35394,16.063l97.5532 0c4.61339,0 8.35394,-7.19174 8.35394,-16.063 0,-8.87127 -3.74055,-16.063 -8.35394,-16.063l-97.5532 0z"/>
   <path id="_493159864" class="fil8" d="M858.762 471.175c-3.09331,0 -5.60079,7.19174 -5.60079,16.063 0,8.87127 2.50748,16.063 5.60079,16.063l65.4048 0c3.09331,0 5.60079,-7.19174 5.60079,-16.063 0,-8.87127 -2.50748,-16.063 -5.60079,-16.063l-65.4048 0z"/>
   <path id="_493173544" class="fil8" d="M861.516 572.652c-4.61339,0 -8.35394,7.19174 -8.35394,16.063 0,8.87127 3.74055,16.063 8.35394,16.063l97.5532 0c4.61339,0 8.35394,-7.19174 8.35394,-16.063 0,-8.87127 -3.74055,-16.063 -8.35394,-16.063l-97.5532 0z"/>
   <path id="_493174456" class="fil8" d="M858.762 674.129c-3.09331,0 -5.60079,7.19174 -5.60079,16.063 0,8.87127 2.50748,16.063 5.60079,16.063l65.4048 0c3.09331,0 5.60079,-7.19174 5.60079,-16.063 0,-8.87127 -2.50748,-16.063 -5.60079,-16.063l-65.4048 0z"/>
  </g>
  <rect class="fil0" width="2048" height="2048"/>
 </g>
</svg>
