<?xml version="1.0" encoding="UTF-8"?>
<!DOCTYPE svg PUBLIC "-//W3C//DTD SVG 1.1//EN" "http://www.w3.org/Graphics/SVG/1.1/DTD/svg11.dtd">
<!-- Creator: CorelDRAW -->
<svg xmlns="http://www.w3.org/2000/svg" xml:space="preserve" width="2048px" height="2048px" style="shape-rendering:geometricPrecision; text-rendering:geometricPrecision; image-rendering:optimizeQuality; fill-rule:evenodd; clip-rule:evenodd"
viewBox="0 0 2048 2048"
 xmlns:xlink="http://www.w3.org/1999/xlink">
 <defs>
  <style type="text/css">
   <![CDATA[
    .fil0 {fill:none}
    .fil6 {fill:#919191}
    .fil4 {fill:#9E9E9E}
    .fil3 {fill:#919191;fill-rule:nonzero}
    .fil5 {fill:#BFBFBF;fill-rule:nonzero}
    .fil1 {fill:#C9C9C9;fill-rule:nonzero}
    .fil2 {fill:#EFEFEF;fill-rule:nonzero}
   ]]>
  </style>
 </defs>
 <g id="Layer_x0020_1">
  <metadata id="CorelCorpID_0Corel-Layer"/>
  <rect class="fil0" x="255.999" y="255.999" width="1536" height="1536"/>
  <g id="_493175872">
   <path id="_493165408" class="fil1" d="M949.548 255.999l-354.623 0c-48.893,0 -88.6312,39.73 -88.6312,88.5946 0,37.1433 23.0398,69.0768 55.4575,82.3253 12.998,5.20158 24.4961,17.3374 24.4961,31.3051l0 1156.77c0,97.6678 79.4682,177.011 177.128,177.011l17.713 0c97.6678,0 177.155,-79.343 177.155,-177.011l0 -1156.77c0,-13.9677 11.4969,-26.1036 24.4949,-31.3051 32.5441,-13.2484 55.5756,-45.0555 55.5756,-82.1894 -0.126378,-48.9107 -39.8646,-88.7304 -88.7658,-88.7304z"/>
   <path id="_493182952" class="fil2" d="M949.548 363.925l-34.5378 0c-14.0941,0 -25.4752,7.66182 -25.7351,17.0847l-0.377953 16.9417 0 389.681c0,14.1024 -11.3811,25.376 -25.376,25.376l-182.561 0c-14.0043,0 -25.2591,-11.2736 -25.2591,-25.376l0 -398.332c0,-14.0043 -11.3988,-25.376 -25.376,-25.376l-35.4 0c-10.6453,0 -19.304,-8.68583 -19.304,-19.3311 0,-10.6169 8.65867,-19.3028 19.304,-19.3028l354.623 0c10.6441,0 19.3394,8.68583 19.3394,19.3028 0,10.6453 -8.69528,19.3311 -19.3394,19.3311z"/>
   <path id="_493174600" class="fil3" d="M706.821 1620.82c0,6.93426 -5.70355,12.6118 -12.6118,12.6118 -7.0689,0 -12.7725,-5.67756 -12.7725,-12.6118l0 -722.54c0,-7.06064 5.70355,-12.7276 12.7725,-12.7276 6.90827,0 12.6118,5.66693 12.6118,12.7276l0 722.54z"/>
   <circle id="_493174552" class="fil4" cx="805.944" cy="1104" r="48"/>
   <circle id="_493167880" class="fil4" cx="829.944" cy="1384" r="72.0001"/>
  </g>
  <g id="_493169296">
   <path id="_493157152" class="fil5" d="M1418.29 511.888l-295.544 0c-40.7481,0 -73.8662,33.111 -73.8662,73.8355 0,30.9555 19.2012,57.5682 46.2189,68.6103 10.8319,4.33465 20.4154,14.4484 20.4154,26.0894l0 964.055c0,81.3969 66.2292,147.522 147.619,147.522l14.7614 0c81.3969,0 147.643,-66.1252 147.643,-147.522l0 -964.055c0,-11.641 9.58111,-21.7547 20.4142,-26.0894 27.1229,-11.0421 46.317,-37.5496 46.317,-68.4969 -0.105118,-40.7634 -33.2233,-73.9489 -73.9784,-73.9489z"/>
   <path id="_493168504" class="fil2" d="M1418.29 601.834l-28.7835 0c-11.7461,0 -21.2315,6.38504 -21.4477,14.2382l-0.315355 14.1201 0 324.762c0,11.7532 -9.48544,21.1488 -21.1488,21.1488l-152.147 0c-11.6705,0 -21.0508,-9.39568 -21.0508,-21.1488l0 -331.972c0,-11.6717 -9.49961,-21.1488 -21.1488,-21.1488l-29.5016 0c-8.87245,0 -16.089,-7.23898 -16.089,-16.1102 0,-8.84883 7.21654,-16.0878 16.089,-16.0878l295.544 0c8.87127,0 16.1185,7.23898 16.1185,16.0878 0,8.87127 -7.24725,16.1102 -16.1185,16.1102z"/>
   <path id="_493182688" class="fil3" d="M1216 1649.34c0,5.77914 -4.75394,10.5106 -10.5106,10.5106 -5.89134,0 -10.6453,-4.7315 -10.6453,-10.5106l0 -602.169c0,-5.88426 4.75394,-10.6075 10.6453,-10.6075 5.7567,0 10.5106,4.72323 10.5106,10.6075l0 602.169z"/>
   <circle id="_493153480" class="fil6" cx="1298.61" cy="1218.62" r="40.0035"/>
   <circle id="_493158664" class="fil6" cx="1318.61" cy="1451.97" r="60.0053"/>
  </g>
  <rect class="fil0" width="2048" height="2048"/>
 </g>
</svg>
