<?xml version="1.0" encoding="UTF-8"?>
<!DOCTYPE svg PUBLIC "-//W3C//DTD SVG 1.1//EN" "http://www.w3.org/Graphics/SVG/1.1/DTD/svg11.dtd">
<!-- Creator: CorelDRAW -->
<svg xmlns="http://www.w3.org/2000/svg" xml:space="preserve" width="2048px" height="2048px" style="shape-rendering:geometricPrecision; text-rendering:geometricPrecision; image-rendering:optimizeQuality; fill-rule:evenodd; clip-rule:evenodd"
viewBox="0 0 2048 2048"
 xmlns:xlink="http://www.w3.org/1999/xlink">
 <defs>
  <style type="text/css">
   <![CDATA[
    .fil0 {fill:none}
    .fil1 {fill:#A2A2A2}
    .fil2 {fill:#BBBBBC}
    .fil3 {fill:#CBCBCC}
    .fil5 {fill:#F4F4F5}
    .fil4 {fill:#F9F9F9}
   ]]>
  </style>
 </defs>
 <g id="Layer_x0020_1">
  <metadata id="CorelCorpID_0Corel-Layer"/>
  <rect class="fil0" x="255.999" y="255.999" width="1536" height="1536"/>
  <path class="fil1" d="M629.67 1236.18l293.207 176.909 -363.969 375.024c-7.48583,7.44804 -19.3099,3.65906 -21.2953,-6.80788l-33.7406 -178.879 -178.99 -33.4229c-9.88583,-1.85788 -13.7575,-14.4756 -6.68032,-21.5528l311.469 -311.27z"/>
  <path class="fil1" d="M1418.33 1236.18l-293.207 176.909 363.969 375.024c7.48583,7.44804 19.3099,3.65906 21.2953,-6.80788l33.7406 -178.879 178.99 -33.4229c9.88583,-1.85788 13.7575,-14.4756 6.68032,-21.5528l-311.469 -311.27z"/>
  <path class="fil2" d="M1038.57 256.003c-12.1063,0.138189 -23.6173,5.71536 -32.0563,14.2488 -144.915,146.439 -108.023,134.678 -311.28,101.152 -12.8327,-2.1189 -26.1851,1.14921 -36.7028,8.76142 -10.415,7.53071 -17.5606,19.0866 -19.4504,31.8177 -30.2185,203.835 -7.9878,172.631 -192.277,264.801 -11.4626,5.73426 -20.3563,16.1256 -24.326,28.2886 -4.09016,12.5032 -2.95512,25.8638 3.08032,37.5237 94.9146,183.832 90.5434,151.841 -0.0165354,327.137 -6.0189,11.6599 -7.10552,25.0914 -3.04843,37.578 3.99331,12.2965 12.7299,22.4917 24.3024,28.2733 184.245,92.0717 161.841,61.0524 192.545,264.69 1.92284,12.7949 8.89371,24.3898 19.3406,32.0398 10.5012,7.69725 23.7272,10.7138 36.5528,8.60198 203.154,-33.4949 166.686,-45.3343 311.305,101.239 8.44371,8.55473 19.8697,14.2252 32.0315,14.2276l0 -1300.38z"/>
  <path class="fil3" d="M1381.9 1440.92c12.8563,2.12008 26.0362,-0.904725 36.5681,-8.61024 10.4469,-7.64174 17.6717,-19.1433 19.5862,-31.976 29.1095,-195.254 7.063,-172.186 192.284,-264.745 11.5807,-5.7815 20.3091,-15.9839 24.3106,-28.2815 4.06536,-12.502 2.96221,-25.9099 -3.06496,-37.5697 -94.4918,-182.935 -94.4847,-144.183 -0.00708662,-327.137 6.03426,-11.6681 7.18465,-25.0051 3.0874,-37.5071 -3.97796,-12.1642 -12.8788,-22.5709 -24.3331,-28.3051 -184.264,-92.1568 -161.965,-61.0016 -192.277,-264.793 -1.89921,-12.7394 -8.99764,-24.2729 -19.4362,-31.8118 -10.5473,-7.62638 -23.8453,-10.8945 -36.7181,-8.7756 -203.216,33.5339 -166.389,45.3201 -311.217,-101.16 -8.17323,-8.26536 -19.2721,-14.0303 -31.0429,-14.237l-0.870473 -0.00590552 -0.196063 0.00236221 0 1300.38 0.00708662 0 0.285827 -0.0011811c12.0945,-0.0862205 23.3752,-5.68347 31.7929,-14.2181 144.548,-146.622 108.102,-134.756 311.241,-101.248z"/>
  <path class="fil4" d="M1038.57 1289.83l0.451181 -0.00590552c210.689,-0.132284 380.914,-173.522 380.914,-383.625 0,-209.992 -170.01,-383.125 -380.457,-383.634 -0.303544,-0.0011811 -0.604725,-0.011811 -0.908268,-0.011811l0 767.277z"/>
  <path class="fil5" d="M1038.55 522.553c-210.861,0 -381.346,173.385 -381.346,383.646 0,210.303 170.541,383.512 381.362,383.631l0.00354331 0 0 -767.277 -0.0188977 0z"/>
  <rect class="fil0" width="2048" height="2048"/>
 </g>
</svg>
