<?xml version="1.0" encoding="UTF-8"?>
<!DOCTYPE svg PUBLIC "-//W3C//DTD SVG 1.1//EN" "http://www.w3.org/Graphics/SVG/1.1/DTD/svg11.dtd">
<!-- Creator: CorelDRAW -->
<svg xmlns="http://www.w3.org/2000/svg" xml:space="preserve" width="2048px" height="2048px" style="shape-rendering:geometricPrecision; text-rendering:geometricPrecision; image-rendering:optimizeQuality; fill-rule:evenodd; clip-rule:evenodd"
viewBox="0 0 2048 2048"
 xmlns:xlink="http://www.w3.org/1999/xlink">
 <defs>
  <style type="text/css">
   <![CDATA[
    .str0 {stroke:#B3B3B3;stroke-width:10.0004;stroke-dasharray:10.000401 10.000401}
    .fil1 {fill:none}
    .fil0 {fill:#757575}
    .fil2 {fill:#BEBEBE}
    .fil3 {fill:#727272;fill-rule:nonzero}
   ]]>
  </style>
 </defs>
 <g id="Layer_x0020_1">
  <metadata id="CorelCorpID_0Corel-Layer"/>
  <polygon class="fil0" points="543.998,255.999 1536,255.999 1536,288 1536,1632 967.119,1632 511.998,1632 511.998,288 511.998,255.999 "/>
  <rect class="fil1" x="255.999" y="255.999" width="1536" height="1536"/>
  <polygon class="fil2" points="574,287.999 1504,287.999 1504,318.512 1504,1600 970.674,1600 543.998,1600 543.998,318.512 543.998,287.999 "/>
  <g id="_493166752">
   <polygon id="_493155760" class="fil0" points="752,512 1296,512 1296,576.002 752,576.002 "/>
   <polygon id="_493175272" class="fil0" points="752,767.997 1296,767.997 1296,831.999 752,831.999 "/>
  </g>
  <g id="_493182040">
   <path id="_493162144" class="fil3" d="M766.139 1275.73c147.821,0 217.892,183.362 108.558,282.16l0 192.338 0 52.4138 -37.063 -37.063 -71.4945 -71.4945 -71.4945 71.4945 -37.0618 37.063 0 -52.4138 0 -192.337c-109.362,-98.7709 -39.2445,-282.161 108.556,-282.161z"/>
   <circle id="_493182496" class="fil1 str0" cx="766.136" cy="1433.67" r="139.895"/>
   <polyline id="_493179040" class="fil1 str0" points="676.26,1559.71 676.26,1745.62 770.489,1657.37 853.375,1735 853.375,1557.96 "/>
  </g>
  <rect class="fil1" width="2048" height="2048"/>
 </g>
</svg>
