<?xml version="1.0" encoding="UTF-8"?>
<!DOCTYPE svg PUBLIC "-//W3C//DTD SVG 1.1//EN" "http://www.w3.org/Graphics/SVG/1.1/DTD/svg11.dtd">
<!-- Creator: CorelDRAW -->
<svg xmlns="http://www.w3.org/2000/svg" xml:space="preserve" width="2048px" height="2048px" style="shape-rendering:geometricPrecision; text-rendering:geometricPrecision; image-rendering:optimizeQuality; fill-rule:evenodd; clip-rule:evenodd"
viewBox="0 0 2048 2048"
 xmlns:xlink="http://www.w3.org/1999/xlink">
 <defs>
  <style type="text/css">
   <![CDATA[
    .fil0 {fill:none}
    .fil2 {fill:#414141}
    .fil4 {fill:#6A6A6A}
    .fil3 {fill:gray}
    .fil5 {fill:#888888}
    .fil6 {fill:#ABABAB}
    .fil7 {fill:#BEBEBE}
    .fil1 {fill:#DADADA}
   ]]>
  </style>
 </defs>
 <g id="Layer_x0020_1">
  <metadata id="CorelCorpID_0Corel-Layer"/>
  <rect class="fil0" x="255.999" y="255.999" width="1536" height="1536"/>
  <g id="_544174688">
   <polygon id="_544163384" class="fil1" points="679.88,1778.07 947.935,1587.32 952.907,1563.97 656.291,1431.8 640.001,1451.5 "/>
   <path id="_544185296" class="fil2" d="M679.88 1778.07l83.3634 -59.3221c-10.8142,-12.9685 -24.7016,-23.713 -41.1992,-30.9898 -17.6941,-7.80355 -36.3107,-10.7079 -54.3296,-9.30827l12.1654 99.6202z"/>
   <path id="_544184384" class="fil3" d="M1254.41 262.935l156.962 69.2304c41.2536,18.1961 60.1146,66.8363 41.9209,108.084l-28.9973 65.7438 -306.966 -135.393 28.9973 -65.7438c18.1961,-41.2524 66.8315,-60.117 108.084,-41.9209z"/>
   <path id="_544165088" class="fil4" d="M1346.34 471.607l1.25906 0.5563 76.6985 33.8292 -476.844 1081.11 -1.84843 -0.814961c-5.54646,-13.0913 -15.7347,-24.0744 -29.5441,-30.1654 -13.8083,-6.09095 -28.7847,-6.2067 -42.1926,-1.47638l-4.37244 -1.92874 476.844 -1081.11z"/>
   <path id="_544169480" class="fil5" d="M1270.81 438.296l1.25906 0.555119 74.2666 32.7567 -476.844 1081.11 -0.71693 -0.315355c-5.54646,-13.0913 -15.7311,-24.0732 -29.5394,-30.163 -13.8083,-6.09095 -28.7882,-6.21024 -42.1961,-1.47756l-3.07323 -1.35591 476.844 -1081.11z"/>
   <path id="_544185992" class="fil4" d="M1195.29 404.984l1.25906 0.555119 74.2666 32.7567 -476.844 1081.11 -2.64567 -1.16693c-5.54528,-13.0913 -15.7311,-24.0721 -29.5406,-30.163 -13.8083,-6.09095 -28.7858,-6.2067 -42.1926,-1.47638l-1.14685 -0.505512 476.844 -1081.11z"/>
   <path id="_544182584" class="fil5" d="M1117.33 370.599l77.9575 34.3843 -476.844 1081.11 -3.94252 -1.73858c-5.54646,-13.0913 -15.7311,-24.0732 -29.5394,-30.163 -13.8095,-6.09095 -28.7906,-6.20906 -42.1985,-1.47874l-2.27717 -1.00394 476.844 -1081.11z"/>
   <polygon id="_544174328" class="fil6" points="1346.34,471.607 1347.6,472.164 1424.29,505.993 1352.84,667.999 1275.95,634.086 1274.88,633.613 "/>
   <polygon id="_544156112" class="fil7" points="1270.81,438.296 1272.07,438.851 1346.34,471.607 1274.88,633.613 1200.43,600.773 1199.36,600.302 "/>
   <polygon id="_544180784" class="fil6" points="1195.29,404.984 1196.55,405.539 1270.81,438.296 1199.36,600.302 1124.9,567.461 1123.83,566.99 "/>
   <polygon id="_544171760" class="fil7" points="1117.33,370.599 1195.29,404.984 1123.83,566.99 1045.87,532.606 "/>
  </g>
  <rect class="fil0" width="2048" height="2048"/>
 </g>
</svg>
