<?xml version="1.0" encoding="UTF-8"?>
<!DOCTYPE svg PUBLIC "-//W3C//DTD SVG 1.1//EN" "http://www.w3.org/Graphics/SVG/1.1/DTD/svg11.dtd">
<!-- Creator: CorelDRAW -->
<svg xmlns="http://www.w3.org/2000/svg" xml:space="preserve" width="2048px" height="2048px" style="shape-rendering:geometricPrecision; text-rendering:geometricPrecision; image-rendering:optimizeQuality; fill-rule:evenodd; clip-rule:evenodd"
viewBox="0 0 2048 2048"
 xmlns:xlink="http://www.w3.org/1999/xlink">
 <defs>
  <style type="text/css">
   <![CDATA[
    .fil0 {fill:none}
    .fil6 {fill:#545454}
    .fil4 {fill:#717171}
    .fil2 {fill:#F6F6F6}
    .fil1 {fill:#545454;fill-rule:nonzero}
    .fil3 {fill:#717171;fill-rule:nonzero}
    .fil5 {fill:#DADADA;fill-rule:nonzero}
   ]]>
  </style>
 </defs>
 <g id="Layer_x0020_1">
  <metadata id="CorelCorpID_0Corel-Layer"/>
  <rect class="fil0" x="255.999" y="255.999" width="1536" height="1536"/>
  <rect class="fil0" x="255.999" y="255.999" width="1536" height="1536"/>
  <g id="_544158344">
   <path id="_544166816" class="fil1" d="M524.204 346.473c325.888,0 693.009,0 1018.9,0 21.6898,0 41.3811,9.00355 55.6335,23.5063 14.2524,14.5016 23.1012,34.5414 23.1012,56.6079l0 1285.3c0,22.0666 -8.85001,42.1052 -23.1012,56.6079 -14.2536,14.5016 -33.9461,23.5063 -55.6335,23.5063l-1018.9 0c-21.6874,0 -41.38,-9.00473 -55.6335,-23.5063 -14.2536,-14.5016 -23.1012,-34.5414 -23.1012,-56.6079 0,-428.432 0,-856.867 0,-1285.3 0,-22.0689 8.84764,-42.1063 23.1012,-56.6079 14.2524,-14.5028 33.9437,-23.5063 55.6335,-23.5063z"/>
   <path id="_544158152" class="fil2" d="M524.204 384.153c-10.9335,0 -21.1252,4.46811 -28.7599,12.2374 -7.94174,8.08111 -12.2953,18.8752 -12.2953,30.1973 0,428.433 0,856.866 0,1285.3 0,11.3197 4.35237,22.1162 12.2941,30.1961 7.63465,7.76694 17.8288,12.2386 28.761,12.2386l1018.9 0c10.9335,0 21.1264,-4.46929 28.761,-12.2374 7.94174,-8.08111 12.2953,-18.8776 12.2953,-30.1973l0 -1285.3c0,-11.3209 -4.35473,-22.1173 -12.2953,-30.1973 -7.63583,-7.7693 -17.8264,-12.2374 -28.761,-12.2374 -339.631,0 -679.263,0 -1018.9,0z"/>
   <path id="_544169576" class="fil3" d="M525.474 256.738c331.144,0 595.525,0 926.669,0 22.0394,0 42.0485,9.00355 56.5311,23.5063 14.4827,14.5016 23.4732,34.5402 23.4732,56.6079l0 1285.3c0,22.0666 -8.99292,42.104 -23.4732,56.6079 -14.4839,14.5004 -34.4941,23.5063 -56.5311,23.5063l-926.669 0c-22.037,0 -42.0473,-9.00591 -56.5311,-23.5063 -14.4815,-14.5016 -23.4732,-34.5414 -23.4732,-56.6079 0,-428.432 0,-856.867 0,-1285.3 0,-22.0701 8.99174,-42.1063 23.4732,-56.6079 14.4827,-14.5028 34.4918,-23.5063 56.5311,-23.5063z"/>
   <polygon id="_544173848" class="fil4" points="1160.17,575.335 1011.67,724.351 1011.67,256.738 1309.09,256.738 1309.09,723.745 "/>
   <polygon id="_544182128" class="fil5" points="1290.25,256.738 1290.25,677.677 1160.12,547.998 1030.51,678.06 1030.51,256.738 "/>
   <path id="_544165304" class="fil6" d="M429.24 632.845l65.2335 0c6.61654,0 12.0284,12.7181 12.0284,28.2591l0 3.02481c0,15.541 -5.413,28.2591 -12.0284,28.2591l-65.2335 0c-6.61536,0 -12.0295,-12.7158 -12.0295,-28.2591l0 -3.02481c0,-15.5433 5.413,-28.2591 12.0295,-28.2591z"/>
   <path id="_544168928" class="fil6" d="M429.24 844.101l65.2335 0c6.61654,0 12.0284,12.7181 12.0284,28.2591l0 3.02599c0,15.5398 -5.413,28.2579 -12.0284,28.2579l-65.2335 0c-6.61536,0 -12.0295,-12.7158 -12.0295,-28.2579l0 -3.02599c0,-15.5433 5.413,-28.2591 12.0295,-28.2591z"/>
   <path id="_544165544" class="fil6" d="M429.24 1055.36l65.2335 0c6.61654,0 12.0284,12.7181 12.0284,28.2591l0 3.02481c0,15.541 -5.413,28.2591 -12.0284,28.2591l-65.2335 0c-6.61536,0 -12.0295,-12.7158 -12.0295,-28.2591l0 -3.02481c0,-15.5433 5.413,-28.2591 12.0295,-28.2591z"/>
   <path id="_544180640" class="fil6" d="M429.24 1266.62l65.2335 0c6.61654,0 12.0284,12.7181 12.0284,28.2591l0 3.02481c0,15.541 -5.413,28.2591 -12.0284,28.2591l-65.2335 0c-6.61536,0 -12.0295,-12.7158 -12.0295,-28.2591l0 -3.02481c0,-15.5433 5.413,-28.2591 12.0295,-28.2591z"/>
  </g>
  <rect class="fil0" width="2048" height="2048"/>
 </g>
</svg>
