<?xml version="1.0" encoding="UTF-8"?>
<!DOCTYPE svg PUBLIC "-//W3C//DTD SVG 1.1//EN" "http://www.w3.org/Graphics/SVG/1.1/DTD/svg11.dtd">
<!-- Creator: CorelDRAW -->
<svg xmlns="http://www.w3.org/2000/svg" xml:space="preserve" width="2048px" height="2048px" style="shape-rendering:geometricPrecision; text-rendering:geometricPrecision; image-rendering:optimizeQuality; fill-rule:evenodd; clip-rule:evenodd"
viewBox="0 0 2048 2048"
 xmlns:xlink="http://www.w3.org/1999/xlink">
 <defs>
  <style type="text/css">
   <![CDATA[
    .fil0 {fill:none}
    .fil3 {fill:none;fill-rule:nonzero}
    .fil9 {fill:#353535}
    .fil8 {fill:#3E3E3E}
    .fil2 {fill:#ABABAB}
    .fil1 {fill:#BEBEBE}
    .fil10 {fill:#E1E1E2}
    .fil4 {fill:#1A191A;fill-rule:nonzero}
    .fil7 {fill:#353535;fill-rule:nonzero}
    .fil5 {fill:#B1B1B1;fill-rule:nonzero}
    .fil6 {fill:#BEBEBE;fill-rule:nonzero}
   ]]>
  </style>
 </defs>
 <g id="Layer_x0020_1">
  <metadata id="CorelCorpID_0Corel-Layer"/>
  <rect class="fil0" x="255.999" y="255.999" width="1536" height="1536"/>
  <g id="_544181096">
   <path id="_544162328" class="fil1" d="M895.161 459.983l75.769 52.6217 -379.453 546.359c-12.1795,17.5382 -36.4961,21.9213 -54.0331,9.74174l-11.9941 -8.33032c-17.537,-12.1795 -21.9213,-36.4937 -9.74056,-54.0331l379.452 -546.359z"/>
   <path id="_544165904" class="fil2" d="M1019.4 506.976l75.769 52.6217 -379.453 546.359c-12.1807,17.537 -36.4961,21.9213 -54.0343,9.74056l-11.9929 -8.32914c-17.537,-12.1795 -21.9225,-36.4949 -9.74174,-54.0331l379.453 -546.359z"/>
   <line id="_544160816" class="fil3" x1="585.091" y1="859.196" x2="585.217" y2= "859.276" />
   <polygon id="_544186424" class="fil4" points="512.712,801.096 536.191,764.326 512.639,801.048 "/>
   <path id="_544187168" class="fil5" d="M474.072 1370.66l0.0011811 0.00472441c1.49528,21.5114 19.4185,38.5004 41.3103,38.5004l496.96 0c22.4292,0 40.6937,-17.8311 41.3906,-40.0914l-579.662 1.58622z"/>
   <path id="_544179152" class="fil6" d="M515.384 1326.34c-22.8721,0 -41.4142,18.5433 -41.4142,41.4142 0,0.979135 0.0354331,1.94764 0.102756,2.90906l579.662 -1.58622c0.0141732,-0.43937 0.0236221,-0.881103 0.0236221,-1.32284 0,-22.8709 -18.5433,-41.4142 -41.4142,-41.4142l-496.96 0z"/>
   <path id="_544159448" class="fil7" d="M473.97 1709.17c-22.8721,0 -41.4142,18.5421 -41.4142,41.4142 0,22.8709 18.5421,41.4142 41.4142,41.4142l1076.75 0c22.8721,0 41.4142,-18.5433 41.4142,-41.4142 0,-22.8721 -18.5421,-41.4142 -41.4142,-41.4142l-1076.75 0z"/>
   <polygon id="_544160144" class="fil6" points="991.195,255.999 1121.62,350.233 1073.41,417.207 942.987,322.974 "/>
   <path id="_544173056" class="fil8" d="M894.93 283.735l537.226 365.654c215.42,146.75 229.533,549.682 101.789,764.578 -8.48977,14.2831 -17.5429,28.2154 -27.1335,41.7768 6.26221,8.69292 11.7177,18.026 16.252,27.8918 44.9752,97.8615 -14.2406,213.522 -121.925,232.738l-798.259 3.84095 0 -315.753 327.226 0 0 41.4142c0,7.86024 -2.08347,21.1748 9.75237,21.1748 37.6843,0 145.72,7.52835 170.864,-0.271654 1.23543,4.11733 79.1776,-34.3725 85.8414,-38.3941 217.627,-131.3 252.601,-429.411 74.5536,-607.446 -7.96182,-7.96182 -16.0075,-15.4087 -24.1063,-22.3264 -27.0981,123.275 -173.627,174.486 -271.795,98.3871 -9.28702,-7.19882 -17.8394,-15.3496 -25.4953,-24.3166 -44.6457,69.6567 -103.189,214.128 -198.515,186.47 -8.43898,-2.45197 -16.5248,-6.04371 -24.0071,-10.839l-186.659 -119.706c-21.5752,-13.8437 -35.4201,-34.9961 -40.441,-57.9934 -4.69725,-21.5103 -1.72914,-44.7095 9.80079,-65.1107 0.793701,-1.40197 1.62402,-2.79213 2.49803,-4.16693l0.114567 0.0732284 0.0472441 -0.0732284 0.0814961 -0.126378 0.0732284 -0.114567 -0.0732284 -0.0484252 324.215 -505.504 22.9229 -35.7355 35.1532 23.9268z"/>
   <path id="_544182848" class="fil9" d="M786.441 1404.46l143.663 0 0 41.4142c0,7.86024 -2.08347,21.1748 9.75237,21.1748 37.6843,0 145.72,7.52835 170.864,-0.271654 1.23543,4.11733 79.1776,-34.3725 85.8414,-38.3941 217.627,-131.3 252.601,-429.411 74.5536,-607.446 -7.96182,-7.96182 -16.0075,-15.4087 -24.1063,-22.3264 -27.0981,123.275 -173.627,174.486 -271.795,98.3871 -9.28702,-7.19882 -17.8394,-15.3496 -25.4953,-24.3166 -37.6666,58.767 -85.2237,170.786 -156.417,187.765l11.974 -600.465c1043.57,208.715 651.884,1159.57 430.484,1159.57l-453.607 0 4.28859 -215.093z"/>
   <path id="_544174160" class="fil10" d="M1089.05 708.464c47.7355,0 86.4331,38.6977 86.4331,86.432 0,47.7355 -38.6977,86.4331 -86.4331,86.4331 -47.7343,0 -86.432,-38.6977 -86.432,-86.4331 0,-47.7343 38.6977,-86.432 86.432,-86.432z"/>
   <path id="_544164176" class="fil9" d="M1089.05 749.875c24.8634,0 45.0201,20.1567 45.0201,45.0201 0,24.8646 -20.1567,45.0201 -45.0201,45.0201 -24.8634,0 -45.0201,-20.1555 -45.0201,-45.0201 0,-24.8634 20.1567,-45.0201 45.0201,-45.0201z"/>
   <path id="_544176728" class="fil10" d="M1302.11 1495.06c45.8126,0 82.9524,37.1398 82.9524,82.9524 0,45.8126 -37.1398,82.9524 -82.9524,82.9524 -45.8126,0 -82.9524,-37.1398 -82.9524,-82.9524 0,-45.8126 37.1398,-82.9524 82.9524,-82.9524z"/>
   <path id="_544188416" class="fil9" d="M1302.11 1528.82c27.1689,0 49.1953,22.0264 49.1953,49.1953 0,27.1701 -22.0264,49.1965 -49.1953,49.1965 -27.1701,0 -49.1965,-22.0264 -49.1965,-49.1965 0,-27.1689 22.0264,-49.1953 49.1965,-49.1953z"/>
  </g>
  <rect class="fil0" width="2048" height="2048"/>
 </g>
</svg>
