<?xml version="1.0" encoding="UTF-8"?>
<!DOCTYPE svg PUBLIC "-//W3C//DTD SVG 1.1//EN" "http://www.w3.org/Graphics/SVG/1.1/DTD/svg11.dtd">
<!-- Creator: CorelDRAW -->
<svg xmlns="http://www.w3.org/2000/svg" xml:space="preserve" width="2048px" height="2048px" style="shape-rendering:geometricPrecision; text-rendering:geometricPrecision; image-rendering:optimizeQuality; fill-rule:evenodd; clip-rule:evenodd"
viewBox="0 0 2048 2048"
 xmlns:xlink="http://www.w3.org/1999/xlink">
 <defs>
  <style type="text/css">
   <![CDATA[
    .fil0 {fill:none}
    .fil4 {fill:#414141}
    .fil5 {fill:#6A6A6A}
    .fil6 {fill:#717171}
    .fil7 {fill:#919191}
    .fil8 {fill:#ABABAB}
    .fil1 {fill:#BCBCBC}
    .fil9 {fill:#BEBEBE}
    .fil2 {fill:#C7C7C7}
    .fil3 {fill:#DADADA}
    .fil10 {fill:#414141;fill-rule:nonzero}
   ]]>
  </style>
 </defs>
 <g id="Layer_x0020_1">
  <metadata id="CorelCorpID_0Corel-Layer"/>
  <rect class="fil0" x="255.999" y="255.999" width="1536" height="1536"/>
  <g id="_544174856">
   <polygon id="_544188512" class="fil1" points="668.071,255.998 669.28,255.998 874.307,255.998 874.307,1792 668.328,1792 668.071,1792 "/>
   <polygon id="_544187864" class="fil2" points="490.307,255.998 682.307,255.998 682.307,1792 490.307,1792 "/>
   <g>
    <polygon id="_544184984" class="fil3" points="937.977,1752.75 1150.85,1601.27 1154.8,1582.73 919.243,1477.77 906.307,1493.41 "/>
    <path id="_544157648" class="fil4" d="M937.977 1752.75l66.2032 -47.1107c-8.5878,-10.2992 -19.6169,-18.8315 -32.7189,-24.6106 -14.0516,-6.19843 -28.8366,-8.50394 -43.1457,-7.39253l9.66142 79.1138z"/>
    <path id="_544178504" class="fil5" d="M1394.24 549.506l124.651 54.9804c32.7614,14.4496 47.7402,53.0776 33.2918,85.8355l-23.028 52.2095 -243.779 -107.523 23.028 -52.2107c14.4496,-32.7603 53.0741,-47.7414 85.8355,-33.2918z"/>
    <path id="_544179224" class="fil6" d="M1467.25 715.224l1.00039 0.441733 60.9107 26.8654 -378.688 858.566 -1.46811 -0.647245c-4.40552,-10.3961 -12.4961,-19.1185 -23.4626,-23.9551 -10.9665,-4.83662 -22.8603,-4.92993 -33.5079,-1.17284l-3.47244 -1.53071 378.688 -858.568z"/>
    <path id="_544187792" class="fil7" d="M1407.27 688.77l0.999213 0.440552 58.9796 26.0138 -378.688 858.568 -0.569292 -0.251575c-4.40433,-10.3961 -12.4925,-19.1173 -23.4591,-23.954 -10.9654,-4.83662 -22.8614,-4.93111 -33.5103,-1.17402l-2.44016 -1.07599 378.688 -858.566z"/>
    <path id="_544181336" class="fil6" d="M1347.29 662.314l0.999213 0.441733 58.9796 26.0138 -378.688 858.566 -2.10118 -0.925985c-4.40315,-10.3973 -12.4925,-19.1173 -23.4603,-23.9551 -10.9654,-4.83662 -22.8591,-4.92874 -33.5067,-1.17165l-0.910631 -0.401575 378.688 -858.568z"/>
    <path id="_544175264" class="fil7" d="M1285.38 635.008l61.9099 27.3059 -378.688 858.568 -3.1311 -1.38071c-4.40433,-10.3973 -12.4925,-19.1173 -23.4591,-23.954 -10.9665,-4.8378 -22.8638,-4.93111 -33.5114,-1.17402l-1.80827 -0.798426 378.688 -858.566z"/>
    <polygon id="_544176896" class="fil8" points="1467.25,715.224 1468.25,715.666 1529.16,742.531 1472.41,871.189 1411.35,844.257 1410.5,843.882 "/>
    <polygon id="_544157624" class="fil9" points="1407.27,688.77 1408.27,689.21 1467.25,715.224 1410.5,843.882 1351.37,817.802 1350.52,817.427 "/>
    <polygon id="_544168880" class="fil8" points="1347.29,662.314 1348.29,662.756 1407.27,688.77 1350.52,817.427 1291.39,791.347 1290.54,790.972 "/>
    <polygon id="_544157672" class="fil9" points="1285.38,635.008 1347.29,662.314 1290.54,790.972 1228.63,763.666 "/>
   </g>
   <polygon id="_544183400" class="fil10" points="490.307,305.434 565.223,305.434 565.223,320.434 490.307,320.434 "/>
   <polygon id="_544174112" class="fil10" points="490.307,434.719 565.223,434.719 565.223,449.719 490.307,449.719 "/>
   <polygon id="_544185824" class="fil10" points="490.307,564.004 565.223,564.004 565.223,579.004 490.307,579.004 "/>
   <polygon id="_544177304" class="fil10" points="490.307,693.289 565.223,693.289 565.223,708.289 490.307,708.289 "/>
   <polygon id="_544162256" class="fil10" points="490.307,822.573 565.223,822.573 565.223,837.573 490.307,837.573 "/>
   <polygon id="_544186544" class="fil10" points="490.307,951.858 565.223,951.858 565.223,966.858 490.307,966.858 "/>
   <polygon id="_544157288" class="fil10" points="490.307,1081.14 565.223,1081.14 565.223,1096.14 490.307,1096.14 "/>
   <polygon id="_544175576" class="fil10" points="490.307,1210.43 565.223,1210.43 565.223,1225.43 490.307,1225.43 "/>
   <polygon id="_544169048" class="fil10" points="490.307,1339.71 565.223,1339.71 565.223,1354.71 490.307,1354.71 "/>
   <polygon id="_544158584" class="fil10" points="490.307,1469 565.223,1469 565.223,1484 490.307,1484 "/>
   <polygon id="_544159280" class="fil10" points="490.307,1598.28 565.223,1598.28 565.223,1613.28 490.307,1613.28 "/>
   <polygon id="_544183160" class="fil10" points="490.307,1727.57 565.223,1727.57 565.223,1742.57 490.307,1742.57 "/>
   <polygon id="_544170272" class="fil10" points="490.307,376.5 527.764,376.5 527.764,391.5 490.307,391.5 "/>
   <polygon id="_544158968" class="fil10" points="490.307,504.499 527.764,504.499 527.764,519.499 490.307,519.499 "/>
   <polygon id="_544169840" class="fil10" points="490.307,632.497 527.764,632.497 527.764,647.497 490.307,647.497 "/>
   <polygon id="_544187216" class="fil10" points="490.307,760.496 527.764,760.496 527.764,775.496 490.307,775.496 "/>
   <polygon id="_544184792" class="fil10" points="490.307,888.494 527.764,888.494 527.764,903.494 490.307,903.494 "/>
   <polygon id="_544160168" class="fil10" points="490.307,1016.49 527.764,1016.49 527.764,1031.49 490.307,1031.49 "/>
   <polygon id="_544165952" class="fil10" points="490.307,1144.49 527.764,1144.49 527.764,1159.49 490.307,1159.49 "/>
   <polygon id="_544164536" class="fil10" points="490.307,1272.49 527.764,1272.49 527.764,1287.49 490.307,1287.49 "/>
   <polygon id="_544169096" class="fil10" points="490.307,1400.49 527.764,1400.49 527.764,1415.49 490.307,1415.49 "/>
   <polygon id="_544168856" class="fil10" points="490.307,1528.49 527.764,1528.49 527.764,1543.49 490.307,1543.49 "/>
   <polygon id="_544184120" class="fil10" points="490.307,1656.49 527.764,1656.49 527.764,1671.49 490.307,1671.49 "/>
  </g>
  <rect class="fil0" width="2048" height="2048"/>
 </g>
</svg>
