<?xml version="1.0" encoding="UTF-8"?>
<!DOCTYPE svg PUBLIC "-//W3C//DTD SVG 1.1//EN" "http://www.w3.org/Graphics/SVG/1.1/DTD/svg11.dtd">
<!-- Creator: CorelDRAW -->
<svg xmlns="http://www.w3.org/2000/svg" xml:space="preserve" width="2048px" height="2048px" style="shape-rendering:geometricPrecision; text-rendering:geometricPrecision; image-rendering:optimizeQuality; fill-rule:evenodd; clip-rule:evenodd"
viewBox="0 0 2048 2048"
 xmlns:xlink="http://www.w3.org/1999/xlink">
 <defs>
  <style type="text/css">
   <![CDATA[
    .fil2 {fill:none}
    .fil3 {fill:#414141}
    .fil6 {fill:#A2A2A2}
    .fil7 {fill:#ABABAB}
    .fil1 {fill:#BBBBBC}
    .fil0 {fill:#CBCBCC}
    .fil9 {fill:#F0F0F0}
    .fil4 {fill:#F0F1F1}
    .fil5 {fill:#FEFEFE}
    .fil8 {fill:#A2A2A2;fill-rule:nonzero}
   ]]>
  </style>
 </defs>
 <g id="Layer_x0020_1">
  <metadata id="CorelCorpID_0Corel-Layer"/>
  <path class="fil0" d="M1024 1664l-415.999 0 0 128c0,17.6728 -14.328,32.0008 -32.0008,32.0008l-160.07 0c-17.6728,0 -32.0008,-14.328 -32.0008,-32.0008l0 -128 -95.9304 0c-17.6728,0 -32.0008,-14.328 -32.0008,-32.0008l0.0011811 -415.903c0,-17.6634 14.3138,-31.989 31.9796,-31.9996l128.02 0.046063 0 -607.917c0,-9.9378 4.31339,-19.1138 12.1217,-25.304l0.0389764 0.0484252c202.925,-160.853 401.463,-234.35 595.841,-233.672l0 1346.7z"/>
  <path class="fil1" d="M1792 1216.1l0 415.903c0,17.6728 -14.328,32.0008 -32.0008,32.0008l-95.9304 0 0 128c0,17.6728 -14.328,32.0008 -32.0008,32.0008l-160.07 0c-17.6728,0 -32.0008,-14.328 -32.0008,-32.0008l0 -128 -415.898 0 -0.100394 0 0 -1346.7 1.15866 0.00708662c4.84134,0.0236221 9.68032,0.080315 14.5169,0.196063 198.877,4.7752 391.664,86.9776 578.931,232.46 8.10946,5.8063 13.3949,15.3036 13.3949,26.0374l0 608.144 125.198 0.0767717c0.922442,-0.0791339 1.85788,-0.124016 2.80158,-0.124016 17.6728,0 32.0008,14.328 32.0008,32.0008z"/>
  <line class="fil2" x1="1024" y1="317.299" x2="1024" y2= "1664" />
  <path class="fil3" d="M1664.07 1664l0 128c0,17.6728 -14.328,32.0008 -32.0008,32.0008l-160.07 0c-17.6728,0 -32.0008,-14.328 -32.0008,-32.0008l0 -128 224.072 0z"/>
  <path class="fil3" d="M609.484 1664l0 128c0,17.6728 -14.328,32.0008 -32.0008,32.0008l-160.07 0c-17.6728,0 -32.0008,-14.328 -32.0008,-32.0008l0 -128 224.072 0z"/>
  <path class="fil4" d="M704 544.001c-17.6728,0 -32.0008,14.328 -32.0008,32.0008 0,17.6728 14.328,32.0008 32.0008,32.0008l608.001 0c17.6728,0 32.0008,-14.328 32.0008,-32.0008 0,-17.6728 -14.328,-32.0008 -32.0008,-32.0008l-608.001 0z"/>
  <polygon class="fil1" points="534.182,758.181 1513.82,758.181 1513.82,1225.82 534.182,1225.82 "/>
  <polygon class="fil5" points="576,768.18 1472,768.18 1503.82,768.18 1503.82,799.999 1503.82,1184 1503.82,1215.82 1472,1215.82 576,1215.82 544.182,1215.82 544.182,1184 544.182,799.999 544.182,768.18 "/>
  <path class="fil3" d="M1617.94 1390.06c-8.68229,-8.68229 -20.6847,-14.0551 -33.9425,-14.0551 -13.2579,0 -25.2591,5.37166 -33.9425,14.0551 -8.68347,8.68347 -14.0551,20.6847 -14.0551,33.9425 0,13.2579 5.37284,25.2603 14.0551,33.9425 8.68347,8.68347 20.6847,14.0551 33.9425,14.0551 13.2579,0 25.2603,-5.37284 33.9425,-14.0551 8.68229,-8.68229 14.0551,-20.6847 14.0551,-33.9425 0,-13.2579 -5.37166,-25.2591 -14.0551,-33.9425z"/>
  <path class="fil6" d="M1584 1312c30.9236,0 58.9241,12.5374 79.193,32.8063 20.2689,20.2701 32.8063,48.2729 32.8063,79.193 0,30.9236 -12.5374,58.9241 -32.8063,79.193 -20.2689,20.2689 -48.2693,32.8063 -79.193,32.8063 -30.9201,0 -58.9229,-12.5374 -79.193,-32.8063 -20.2689,-20.2689 -32.8063,-48.2693 -32.8063,-79.193 0,-30.9201 12.5374,-58.9229 32.8063,-79.193 20.2701,-20.2689 48.2729,-32.8063 79.193,-32.8063z"/>
  <path class="fil3" d="M497.945 1390.06c-8.68347,-8.68347 -20.6847,-14.0551 -33.9425,-14.0551 -13.2579,0 -25.2603,5.37284 -33.9425,14.0551 -8.68347,8.68347 -14.0551,20.6847 -14.0551,33.9425 0,13.2579 5.37284,25.2603 14.0551,33.9425 8.68229,8.68229 20.6847,14.0551 33.9425,14.0551 13.2579,0 25.2591,-5.37166 33.9425,-14.0551 8.68229,-8.68229 14.0551,-20.6847 14.0551,-33.9425 0,-13.2579 -5.37166,-25.2591 -14.0551,-33.9425z"/>
  <path class="fil6" d="M464.002 1312c30.9201,0 58.9229,12.5374 79.193,32.8063 20.2689,20.2701 32.8063,48.2729 32.8063,79.193 0,30.9236 -12.5374,58.9241 -32.8063,79.193 -20.2701,20.2689 -48.2729,32.8063 -79.193,32.8063 -30.9236,0 -58.9241,-12.5374 -79.193,-32.8063 -20.2689,-20.2689 -32.8063,-48.2693 -32.8063,-79.193 0,-30.9201 12.5374,-58.9229 32.8063,-79.193 20.2689,-20.2689 48.2693,-32.8063 79.193,-32.8063z"/>
  <polygon class="fil4" points="640.001,1344 1408,1344 1408,1408.01 640.001,1408.01 "/>
  <polygon class="fil7" points="640.001,1440.01 1408,1440.01 1408,1504.01 640.001,1504.01 "/>
  <rect class="fil2" x="255.999" y="255.999" width="1536" height="1536"/>
  <path class="fil8" d="M416.243 831.999c0,-17.6728 -14.328,-32.0008 -32.0008,-32.0008 -17.6728,0 -32.0008,14.328 -32.0008,32.0008l0 224.001c0,17.6728 14.328,32.0008 32.0008,32.0008 17.6728,0 32.0008,-14.328 32.0008,-32.0008l0 -224.001z"/>
  <path class="fil8" d="M1696 831.999c0,-17.6728 -14.328,-32.0008 -32.0008,-32.0008 -17.6728,0 -32.0008,14.328 -32.0008,32.0008l0 224.001c0,17.6728 14.328,32.0008 32.0008,32.0008 17.6728,0 32.0008,-14.328 32.0008,-32.0008l0 -224.001z"/>
  <path class="fil9" d="M464.002 1344c22.0855,0 42.0874,8.95512 56.5654,23.4331 14.478,14.478 23.4331,34.4799 23.4331,56.5654 0,22.0878 -8.95512,42.0886 -23.4331,56.5654 -14.478,14.478 -34.4799,23.4331 -56.5654,23.4331 -22.0878,0 -42.0886,-8.95512 -56.5654,-23.4331 -14.478,-14.4768 -23.4331,-34.4776 -23.4331,-56.5654 0,-22.0855 8.95512,-42.0874 23.4331,-56.5654 14.4768,-14.478 34.4776,-23.4331 56.5654,-23.4331z"/>
  <path class="fil9" d="M1584 1344c22.0878,0 42.0886,8.95512 56.5654,23.4331 14.478,14.478 23.4331,34.4799 23.4331,56.5654 0,22.0878 -8.95512,42.0886 -23.4331,56.5654 -14.4768,14.478 -34.4776,23.4331 -56.5654,23.4331 -22.0855,0 -42.0874,-8.95512 -56.5654,-23.4331 -14.478,-14.4768 -23.4331,-34.4776 -23.4331,-56.5654 0,-22.0855 8.95512,-42.0874 23.4331,-56.5654 14.478,-14.478 34.4799,-23.4331 56.5654,-23.4331z"/>
  <rect class="fil2" width="2048" height="2048"/>
 </g>
</svg>
