<?xml version="1.0" encoding="UTF-8"?>
<!DOCTYPE svg PUBLIC "-//W3C//DTD SVG 1.1//EN" "http://www.w3.org/Graphics/SVG/1.1/DTD/svg11.dtd">
<!-- Creator: CorelDRAW -->
<svg xmlns="http://www.w3.org/2000/svg" xml:space="preserve" width="2048px" height="2048px" style="shape-rendering:geometricPrecision; text-rendering:geometricPrecision; image-rendering:optimizeQuality; fill-rule:evenodd; clip-rule:evenodd"
viewBox="0 0 2048 2048"
 xmlns:xlink="http://www.w3.org/1999/xlink">
 <defs>
  <style type="text/css">
   <![CDATA[
    .fil0 {fill:none}
    .fil1 {fill:#E6E6E7}
    .fil4 {fill:#4B4B4B;fill-rule:nonzero}
    .fil6 {fill:#525252;fill-rule:nonzero}
    .fil5 {fill:#B3B3B3;fill-rule:nonzero}
    .fil2 {fill:#C7C7C7;fill-rule:nonzero}
    .fil3 {fill:#D7D7D7;fill-rule:nonzero}
   ]]>
  </style>
 </defs>
 <g id="Layer_x0020_1">
  <metadata id="CorelCorpID_0Corel-Layer"/>
  <rect class="fil0" x="255.999" y="255.999" width="1536" height="1536"/>
  <g id="_544156328">
   <g>
    <rect id="_513944800" class="fil1" x="831.646" y="1200.74" width="379.535" height="383.704"/>
    <path id="_513967072" class="fil2" d="M676.767 1200.74l196.578 0 19.5402 0 7.67835 18.0685 71.4615 168.161 49.3843 116.198 49.3855 -116.198 71.4627 -168.161 7.67717 -18.0685 19.5402 0 196.585 0c37.4811,0 71.5312,15.313 96.1973,39.9803 24.6685,24.6709 39.9803,58.7256 39.9803,96.2044l0 318.893c0,37.48 -15.3118,71.5323 -39.9792,96.1997 -24.6662,24.6673 -58.7174,39.9792 -96.1985,39.9792l-689.293 0c-37.4764,0 -71.53,-15.313 -96.1985,-39.9815 -24.6673,-24.6662 -39.9792,-58.7174 -39.9792,-96.1973l0 -318.893c0,-37.4823 15.3106,-71.5359 39.978,-96.2056 24.6673,-24.6673 58.7197,-39.9792 96.1997,-39.9792z"/>
   </g>
   <path id="_513960640" class="fil3" d="M1239.93 1113.1c-55.9347,55.9382 -133.202,90.5446 -218.527,90.5446 -85.3205,0 -162.592,-34.6087 -218.529,-90.5469 -53.5229,-53.5217 -87.515,-126.578 -90.3509,-207.527 1.58386,-75.4394 10.1811,-150.571 10.1811,-226.153l0 -17.3091 15.2894 -8.5193c0.402756,-0.223229 139.055,-78.1335 282.097,-78.1335 142.73,0 285.321,75.3957 285.735,75.6119l15.9851 8.3693 0 17.8063c0,76.0264 7.12914,151.709 8.48741,227.63 -2.66575,81.228 -36.6945,154.55 -90.3686,208.226z"/>
   <g>
    <path id="_544167248" class="fil4" d="M1024 255.999l-532.333 193.877 0 46.4315 233.234 62.7969 0 140.6c166.519,-47.4178 431.306,-46.7103 598.21,0l0 -140.6 233.224 -62.7969 0 -46.4315 -532.335 -193.877z"/>
    <polygon id="_544159160" class="fil5" points="1017.95,258.21 1017.95,255.999 1020.98,257.105 "/>
    <path id="_544177664" class="fil6" d="M1466.09 953.626c-21.5847,-0.959056 -43.3004,-12.1323 -67.7977,-33.5173 -7.27323,-6.34252 9.85158,-49.0961 36.887,-106.558 -7.74922,-2.6811 -13.3536,-9.92835 -13.3536,-18.5587 0,-10.8803 8.87717,-19.715 19.8106,-19.715l0.217323 0 0 -359.64c0,-2.45788 0.327166,-4.84134 0.937796,-7.1126 2.88425,-10.6063 12.0614,-18.626 23.2984,-19.8697 13.6488,1.50118 24.2563,13.0063 24.2563,26.9823l0 359.64 3.35788 0c10.9512,0 19.8284,8.83465 19.8284,19.715 0,9.64725 -6.96615,17.6339 -16.1528,19.3488 26.9669,57.3296 43.7492,99.4524 36.515,105.768 -24.4949,21.3851 -46.2189,32.5583 -67.8048,33.5173z"/>
   </g>
  </g>
  <rect class="fil0" width="2048" height="2048"/>
 </g>
</svg>
