<?xml version="1.0" encoding="UTF-8"?>
<!DOCTYPE svg PUBLIC "-//W3C//DTD SVG 1.1//EN" "http://www.w3.org/Graphics/SVG/1.1/DTD/svg11.dtd">
<!-- Creator: CorelDRAW -->
<svg xmlns="http://www.w3.org/2000/svg" xml:space="preserve" width="2048px" height="2048px" style="shape-rendering:geometricPrecision; text-rendering:geometricPrecision; image-rendering:optimizeQuality; fill-rule:evenodd; clip-rule:evenodd"
viewBox="0 0 2048 2048"
 xmlns:xlink="http://www.w3.org/1999/xlink">
 <defs>
  <style type="text/css">
   <![CDATA[
    .fil0 {fill:none}
    .fil3 {fill:#5C5C5C}
    .fil2 {fill:#BCBCBC}
    .fil1 {fill:#D7D7D7}
   ]]>
  </style>
 </defs>
 <g id="Layer_x0020_1">
  <metadata id="CorelCorpID_0Corel-Layer"/>
  <rect class="fil0" x="255.999" y="255.999" width="1536" height="1536"/>
  <g id="_513938152">
   <path id="_513954232" class="fil1" d="M1467.73 1396.54c9.50434,0.529134 18.9248,2.1 28.1079,4.67481 13.2803,3.72402 25.4776,9.23977 36.5918,16.1823l0 -421.388c0,-102.32 -78.4926,-186.072 -174.428,-186.072l-675.109 0c-95.9351,0 -174.436,83.7331 -174.436,186.072l0 426.126c12.9579,-9.20434 26.9114,-20.8323 43.7138,-20.9185l915.559 -4.67599z"/>
   <path id="_513955096" class="fil2" d="M1020.44 287.999c141.713,0 256.597,114.878 256.597,256.59 0,141.712 -114.884,256.595 -256.597,256.595 -141.712,0 -256.595,-114.882 -256.595,-256.595 0,-141.712 114.882,-256.59 256.595,-256.59z"/>
   <path id="_513948112" class="fil3" d="M1422.71 1688.6c-162.973,-55.1185 -303.748,-46.6217 -408.509,71.4036 -93.332,-96.567 -219.562,-128.467 -396.039,-77.902 0,-240.112 0,-478.755 0,-717.906 163.369,-21.5575 287.233,6.16536 402.276,138.308 99.743,-145.152 248.557,-145.389 402.273,-136.567 0,240.887 0,481.777 0,722.664z"/>
   <path id="_513956392" class="fil2" d="M1460.48 1174.86c61.2626,0 110.924,65.4886 110.924,146.276 0,80.8016 -49.6618,146.288 -110.924,146.288 -61.265,0 -110.926,-65.4863 -110.926,-146.288 0,-80.7875 49.6607,-146.276 110.926,-146.276z"/>
   <path id="_513962008" class="fil2" d="M587.523 1174.86c61.2638,0 110.924,65.4886 110.924,146.276 0,80.8016 -49.6607,146.288 -110.924,146.288 -61.265,0 -110.926,-65.4863 -110.926,-146.288 0,-80.7875 49.6607,-146.276 110.926,-146.276z"/>
  </g>
  <rect class="fil0" width="2048" height="2048"/>
 </g>
</svg>
