<?xml version="1.0" encoding="UTF-8"?>
<!DOCTYPE svg PUBLIC "-//W3C//DTD SVG 1.1//EN" "http://www.w3.org/Graphics/SVG/1.1/DTD/svg11.dtd">
<!-- Creator: CorelDRAW -->
<svg xmlns="http://www.w3.org/2000/svg" xml:space="preserve" width="2048px" height="2048px" style="shape-rendering:geometricPrecision; text-rendering:geometricPrecision; image-rendering:optimizeQuality; fill-rule:evenodd; clip-rule:evenodd"
viewBox="0 0 2048 2048"
 xmlns:xlink="http://www.w3.org/1999/xlink">
 <defs>
  <style type="text/css">
   <![CDATA[
    .fil0 {fill:none}
    .fil3 {fill:#414141}
    .fil4 {fill:#616161}
    .fil1 {fill:#797979;fill-rule:nonzero}
    .fil6 {fill:#939393;fill-rule:nonzero}
    .fil2 {fill:#959595;fill-rule:nonzero}
    .fil5 {fill:#CFCFCF;fill-rule:nonzero}
    .fil7 {fill:#EDEDEE;fill-rule:nonzero}
   ]]>
  </style>
 </defs>
 <g id="Layer_x0020_1">
  <metadata id="CorelCorpID_0Corel-Layer"/>
  <rect class="fil0" x="255.999" y="255.999" width="1536" height="1536"/>
  <path class="fil1" d="M349.693 1491.82l301.266 0 0.146457 0.146457 0.747638 0.00472441 0.292914 0c21.5339,0.317717 43.3949,8.62087 59.6776,21.9484 18.2929,14.9717 30.7158,36.4571 30.7158,61.2945l-0.146457 0.292914 -0.0011811 0.22441 0.144095 0 0 140.643 0 37.4256 -37.4268 0 -411.683 0 -37.4268 0 0 -37.4256 0 -140.643c0,-25.6595 11.4366,-46.8544 29.5276,-61.7977 17.0599,-14.0953 40.1114,-22.1138 64.1658,-22.1138z"/>
  <path class="fil2" d="M394.373 1434.98c-25.8449,-34.0299 -41.9386,-79.7764 -41.9386,-123.426 0,-43.9288 15.6248,-78.639 41.1733,-103.253 27.1666,-26.1732 64.7115,-39.6744 105.754,-39.6744 40.9453,0 78.4642,13.5118 105.605,39.704 25.5106,24.6201 41.139,59.3209 41.139,103.224 0,43.5957 -16.076,89.2914 -41.8453,123.314l0.0944883 0.0708662c-26.3374,34.7398 -63.1418,58.2343 -104.993,58.2343 -41.8359,0 -78.626,-23.4756 -104.988,-58.193z"/>
  <path class="fil1" d="M874.423 1491.82l301.266 0 0.146457 0.146457 0.747638 0.00472441 0.292914 0c21.5339,0.317717 43.3949,8.62087 59.6776,21.9484 18.2929,14.9717 30.7158,36.4571 30.7158,61.2945l-0.146457 0.292914 -0.0011811 0.22441 0.144095 0 0 140.643 0 37.4256 -37.4268 0 -411.683 0 -37.4268 0 0 -37.4256 0 -140.643c0,-25.6595 11.4366,-46.8544 29.5276,-61.7977 17.0599,-14.0953 40.1114,-22.1138 64.1658,-22.1138z"/>
  <path class="fil2" d="M919.101 1434.98c-25.8437,-34.0299 -41.9374,-79.7764 -41.9374,-123.426 0,-43.9288 15.6236,-78.639 41.1721,-103.253 27.1677,-26.1732 64.7115,-39.6744 105.755,-39.6744 40.9453,0 78.4642,13.5118 105.605,39.704 25.5106,24.6201 41.139,59.3209 41.139,103.224 0,43.5957 -16.076,89.2914 -41.8453,123.314l0.0933072 0.0708662c-26.3362,34.7398 -63.1394,58.2343 -104.992,58.2343 -41.8359,0 -78.626,-23.4756 -104.989,-58.193z"/>
  <path class="fil1" d="M1399.15 1491.82l301.266 0 0.146457 0.146457 0.747638 0.00472441 0.291733 0c21.5351,0.317717 43.3961,8.62087 59.6788,21.9484 18.2929,14.9717 30.7158,36.4571 30.7158,61.2945l-0.146457 0.292914 -0.0011811 0.22441 0.142913 0 0 140.643 0 37.4256 -37.4268 0 -411.682 0 -37.4268 0 0 -37.4256 0 -140.643c0,-25.6595 11.4354,-46.8544 29.5276,-61.7977 17.0599,-14.0953 40.1103,-22.1138 64.1658,-22.1138z"/>
  <path class="fil2" d="M1443.83 1434.98c-25.8437,-34.0299 -41.9386,-79.7764 -41.9386,-123.426 0,-43.9288 15.6248,-78.639 41.1733,-103.253 27.1677,-26.1732 64.7115,-39.6744 105.755,-39.6744 40.9453,0 78.4642,13.5118 105.604,39.704 25.5118,24.6201 41.1402,59.3209 41.1402,103.224 0,43.5957 -16.076,89.2914 -41.8453,123.314l0.0933072 0.0708662c-26.3374,34.7398 -63.1394,58.2343 -104.992,58.2343 -41.8359,0 -78.6249,-23.4744 -104.989,-58.193z"/>
  <path class="fil3" d="M446.233 294.195l1155.53 0c26.4095,0 50.3953,10.7787 67.7599,28.1433 17.3634,17.3634 28.1421,41.3492 28.1421,67.7611l0 556.709c0,26.4118 -10.7787,50.3977 -28.1421,67.7623 -17.3646,17.3634 -41.3504,28.1421 -67.7599,28.1421l-1155.53 0c-26.4107,0 -50.3965,-10.7787 -67.7599,-28.1421 -17.3634,-17.3646 -28.1421,-41.3504 -28.1421,-67.7623l0 -556.709c0,-26.4118 10.7787,-50.3977 28.1421,-67.7611 17.3634,-17.3646 41.3492,-28.1433 67.7599,-28.1433z"/>
  <path class="fil4" d="M446.233 334.194c-14.8914,0 -28.9559,5.9067 -39.476,16.4268 -10.5201,10.5213 -16.4268,24.5858 -16.4268,39.4784l0 556.709c0,14.8925 5.9067,28.9583 16.4268,39.4796 10.5201,10.5201 24.5847,16.4256 39.476,16.4256l1155.53 0c14.8914,0 28.9559,-5.9067 39.476,-16.4268 10.5213,-10.5213 16.4268,-24.5858 16.4268,-39.4784l0 -556.709c0,-14.8925 -5.90552,-28.9571 -16.4268,-39.4772 -10.5201,-10.5201 -24.5835,-16.428 -39.476,-16.428l-1155.53 0z"/>
  <g id="_513951496">
   <polygon id="_513966760" class="fil5" points="511.999,476.455 799.999,476.455 799.999,516.456 511.999,516.456 "/>
   <polygon id="_513960280" class="fil6" points="511.999,648.454 1536,648.454 1536,688.456 511.999,688.456 "/>
   <polygon id="_513954664" class="fil7" points="511.999,776.454 1536,776.454 1536,860.455 511.999,860.455 "/>
  </g>
  <rect class="fil0" width="2048" height="2048"/>
 </g>
</svg>
