<?xml version="1.0" encoding="UTF-8"?>
<!DOCTYPE svg PUBLIC "-//W3C//DTD SVG 1.1//EN" "http://www.w3.org/Graphics/SVG/1.1/DTD/svg11.dtd">
<!-- Creator: CorelDRAW -->
<svg xmlns="http://www.w3.org/2000/svg" xml:space="preserve" width="2048px" height="2048px" style="shape-rendering:geometricPrecision; text-rendering:geometricPrecision; image-rendering:optimizeQuality; fill-rule:evenodd; clip-rule:evenodd"
viewBox="0 0 2048 2048"
 xmlns:xlink="http://www.w3.org/1999/xlink">
 <defs>
  <style type="text/css">
   <![CDATA[
    .fil19 {fill:none}
    .fil18 {fill:#202020;fill-rule:nonzero}
    .fil12 {fill:#353535;fill-rule:nonzero}
    .fil8 {fill:#3C3C3C;fill-rule:nonzero}
    .fil4 {fill:#3E3E3E;fill-rule:nonzero}
    .fil13 {fill:#3F3F3F;fill-rule:nonzero}
    .fil16 {fill:#414141;fill-rule:nonzero}
    .fil0 {fill:#494949;fill-rule:nonzero}
    .fil3 {fill:#4B4B4B;fill-rule:nonzero}
    .fil14 {fill:#4F5050;fill-rule:nonzero}
    .fil17 {fill:#525252;fill-rule:nonzero}
    .fil5 {fill:darkgray;fill-rule:nonzero}
    .fil6 {fill:#AFAFAF;fill-rule:nonzero}
    .fil11 {fill:#B3B3B3;fill-rule:nonzero}
    .fil15 {fill:#B9B9B9;fill-rule:nonzero}
    .fil10 {fill:#BEBEBE;fill-rule:nonzero}
    .fil1 {fill:#CECECE;fill-rule:nonzero}
    .fil9 {fill:#DBDBDB;fill-rule:nonzero}
    .fil7 {fill:#EEEEEE;fill-rule:nonzero}
    .fil2 {fill:#FEFEFF;fill-rule:nonzero}
   ]]>
  </style>
 </defs>
 <g id="Layer_x0020_1">
  <metadata id="CorelCorpID_0Corel-Layer"/>
  <g id="_513939256">
   <path id="_513969808" class="fil0" d="M1011.51 1179.55c0.89882,-7.90631 2.10118,-15.8339 3.49843,-23.7579 1.39606,7.92402 2.59843,15.8516 3.49961,23.7579 7.78583,68.4733 5.72126,139.162 -3.49961,207.184 -9.21969,-68.0221 -11.2949,-138.711 -3.49843,-207.184zm308.507 -240.301c-4.59922,-41.1532 4.56615,-82.2662 8.57835,-123.604 3.14173,-32.4177 12.8209,-58.8119 13.024,-105.574l-325.462 -208.159c-0.46063,1.92874 -0.754725,3.85748 -1.14803,5.79449 -0.38504,-1.93701 -0.696851,-3.86575 -1.14803,-5.79449l-309.409 209.405c-0.935434,42.678 2.46969,70.0831 5.6126,102.52 4.00276,41.3268 4.54489,84.2587 -0.0661418,125.412 -14.9079,133.282 -29.6221,368.022 -34.5213,377.524 -14.6091,28.3229 -106.658,117.028 -98.8383,135.671 7.75512,18.4772 70.754,35.8075 86.2666,40.3996 25.7965,7.61221 53.9528,10.9181 79.5119,20.589 23.354,8.8441 45.515,24.9166 70.6961,29.0292 27.6083,4.5189 54,-6.3 81.1465,-8.22638 21.8126,-1.55433 44.2394,-0.0106299 66.1335,-0.0106299 2.31378,0 4.59213,0.127559 6.89528,0.174803 -6.64843,4.363 -14.4815,7.42914 -23.9788,8.6504 24.091,0.810237 47.8489,-2.14016 71.6989,-4.84725 23.8488,2.70709 47.5985,5.65748 71.7071,4.84725 -9.48898,-1.22126 -17.348,-4.2874 -23.9988,-8.6504 2.30551,-0.0472441 4.59213,-0.174803 6.89764,-0.174803 21.9047,0 44.3386,-1.5437 66.1489,0.0106299 27.15,1.92638 53.5335,12.7453 81.1383,8.22638 25.1847,-4.1126 47.3433,-20.1851 70.7079,-29.0292 25.5378,-9.67087 53.7154,-12.9768 79.493,-20.589 15.5197,-4.59213 78.5221,-21.9225 86.2713,-40.3996 7.83308,-18.6425 -84.215,-107.348 -98.8347,-135.671 -2.22638,-4.31457 -22.1929,-267.295 -34.5225,-377.524z"/>
   <path id="_513963328" class="fil1" d="M1295.31 826.928c-1.13032,0 -2.20512,0.375591 -3.33544,0.505512 -19.8732,-173.325 -135.689,-306.497 -276.033,-306.497 -140.613,0 -256.631,133.696 -276.164,307.49 -22.7103,6.84922 -39.8032,36.3307 -39.8032,71.6776 0,38.5914 20.4532,69.8693 46.2957,72.626 18.4961,89.2654 63.0745,164.689 122.491,212.345l0 84.2056 279.379 0 -0.432284 -85.0229c67.1327,-46.6264 118.178,-115.384 138.069,-212.392 3.09567,0.871654 6.27166,1.40551 9.53387,1.40551 27.5575,0 49.8933,-32.7591 49.8933,-73.167 0,-40.4079 -22.3358,-73.1753 -49.8933,-73.1753z"/>
   <path id="_513961960" class="fil2" d="M1235.04 1239.34c0,0 -10.5614,-79.9099 -54.6237,-54.9839 -80.4875,45.541 -149.164,64.4327 -165.932,67.6193 -16.7622,-3.18662 -79.7788,-16.9914 -160.266,-62.5217 -44.0705,-24.9343 -44.0705,49.8863 -44.0705,49.8863l212.446 260.661 212.446 -260.661z"/>
   <polygon id="_513952384" class="fil3" points="1608.57,1489.87 1235.04,1239.34 1022.59,1492.13 810.147,1239.34 436.629,1489.87 436.874,1786.71 1610.21,1786.71 "/>
   <path id="_513962584" class="fil0" d="M1283.8 635.3c45.5162,40.702 12.2622,119.581 -27.0626,149.815 -49.1622,37.7894 -121.412,37.4138 -181.012,34.4859 -65.993,-3.25158 -139.556,-9.30473 -198.084,22.4421 -22.0394,11.9315 -43.6855,29.0941 -64.0016,43.7067 -17.6209,12.665 -32.3351,37.3299 -51.1619,45.091 -9.97324,-12.2953 -12.6366,-24.978 -17.9551,-39.489 -5.40945,-14.7756 -9.03544,-32.2547 -13.8933,-47.4709 -11.3894,-35.687 -11.3894,-76.1138 -9.85513,-113.694 2.62559,-64.5343 33.274,-137.325 73.3701,-187.687 23.2252,-29.1484 60.7229,-54.7914 95.2158,-67.9064 24.1347,-9.15591 80.256,-30.2126 102.499,-8.00788l291.942 168.715z"/>
   <polygon id="_513966520" class="fil4" points="1023.89,1542.29 1023.89,1542.29 1023.67,1496.4 1023.74,1498.74 1023.77,1498.72 "/>
   <path id="_513956320" class="fil5" d="M1148.87 1183.46l-0.0106299 -0.458268c21.0496,-14.6221 40.5201,-31.4185 57.9308,-50.576 -17.3929,19.3323 -36.8622,36.2847 -57.9201,51.0343zm146.444 -210.187c-2.96811,0 -5.86063,-0.441733 -8.69056,-1.18465 0.101575,-0.497244 0.20315,-0.990946 0.304725,-1.49646 3.09567,0.890552 6.27166,1.41378 9.5315,1.41378 10.2768,0 19.8177,-4.54489 27.7453,-12.3532 0.00708662,0.0295276 0.0177165,0.0661418 0.0177165,0.0921261 -0.38504,0.405118 -0.770079,0.791339 -1.16575,1.17638 -7.93465,7.80709 -17.4756,12.352 -27.7429,12.352z"/>
   <path id="_513966568" class="fil6" d="M1326.68 840.611c-0.283465,-0.320079 -0.577559,-0.63189 -0.871654,-0.944883 1.02756,-8.01024 2.00197,-16.0075 2.78268,-24.026 2.49921,-25.7587 9.1193,-47.7166 11.8394,-79.1174 0.484252,0.129921 0.825591,0.220866 1.00984,0.275197 -2.79331,30.5729 -9.23859,52.2378 -11.6906,77.5749 -0.853938,8.75198 -1.93937,17.4969 -3.06969,26.2382z"/>
   <path id="_513944296" class="fil0" d="M1325.81 839.666c-7.13623,-7.63229 -15.7028,-12.5445 -24.9969,-13.7291 6.89646,-31.3099 6.69331,-65.178 5.39882,-97.0182 0,-0.0838583 -0.0106299,-0.164173 -0.0106299,-0.258662 19.3323,3.98622 30.711,6.91772 34.2307,7.8626 -2.72008,31.4008 -9.34016,53.3587 -11.8394,79.1174 -0.780709,8.01851 -1.75512,16.0158 -2.78268,24.026z"/>
   <path id="_513945472" class="fil6" d="M1341.62 734.906l0 -26.8524 1.15512 0.744095c-0.046063,9.4689 -0.475985,18.0933 -1.15512,26.1083z"/>
   <path id="_513945832" class="fil4" d="M1341.44 736.798c-0.184252,-0.0543308 -0.525591,-0.145276 -1.00984,-0.275197 -3.51969,-0.944883 -14.8984,-3.87638 -34.2307,-7.8626 0,-0.0259843 -0.00708662,-0.0720473 -0.00708662,-0.108662 23.2335,4.22481 34.9618,7.02638 34.9618,7.02638l0 -27.8079 0.46063 0.283465 0 26.8524c-0.0578741,0.635434 -0.112205,1.26024 -0.174803,1.89213zm-322.504 -226.735l-0.0106299 -2.55355c0.0177165,-0.101575 0.0366142,-0.20315 0.0543308,-0.294095l-0.0437008 2.84764z"/>
   <polygon id="_513948520" class="fil7" points="1016.2,1268.02 1016.2,1267.99 "/>
   <path id="_513947848" class="fil8" d="M1147.8 1201.06l-0.090945 -16.8071c0.38504,-0.265748 0.77126,-0.533859 1.15866,-0.799607l0.080315 17.028c-0.38504,0.19252 -0.770079,0.386221 -1.14803,0.578741zm58.9878 -68.641c37.5697,-41.7579 65.4721,-94.6383 78.9898,-160.558 0.284646,0.0732284 0.559843,0.145276 0.843308,0.220866 -13.7728,65.902 -41.9764,118.699 -79.8331,160.337z"/>
   <path id="_513967648" class="fil9" d="M1325.9 957.907c11.7461,-13.3807 19.3028,-34.2933 19.3028,-57.8032 0,-23.7496 -7.7126,-44.8618 -19.6807,-58.2343 0.101575,-0.734646 0.19252,-1.46811 0.284646,-2.20276 0.294095,0.312992 0.588189,0.624804 0.871654,0.944883 11.9492,13.363 19.6618,34.4752 19.6618,58.2248 0,24.254 -8.04331,45.7618 -20.4402,59.0705z"/>
   <path id="_513957952" class="fil4" d="M1235.08 1239.38l-0.0448819 -0.0354331c0,0 -7.90867,-59.7969 -38.5618,-59.7969 -4.78465,0 -10.1209,1.45276 -16.0618,4.813 -11.1319,6.3 -22.0417,12.0839 -32.6138,17.3929l0 -0.687402c0.377953,-0.19252 0.762993,-0.386221 1.14803,-0.578741 10.5721,-5.31024 21.4819,-11.0941 32.6114,-17.387 5.94331,-3.36851 11.2795,-4.82126 16.0536,-4.82126 30.6567,0 38.563,59.8052 38.563,59.8052l0 0 -1.0937 1.29567z"/>
   <path id="_513951136" class="fil1" d="M1015.67 1251.75l-0.0366142 -1.03819c0.229134,-0.0472441 0.458268,-0.090945 0.7063,-0.138189 15.2988,-3.04843 67.1434,-17.3658 131.464,-49.5083l0 0.687402c-64.193,32.2252 -116.154,46.728 -132.134,49.9973z"/>
   <path id="_513963448" class="fil10" d="M1023.49 1491.07l-7.29213 -223.044 0 -0.0366142 -0.531496 -16.2366c15.9791,-3.26929 67.9406,-17.7721 132.134,-49.9973 10.5721,-5.30906 21.4819,-11.0929 32.6138,-17.3929 5.94095,-3.36024 11.2772,-4.813 16.0618,-4.813 30.6532,0 38.5618,59.7969 38.5618,59.7969l0 0 -211.547 251.724z"/>
   <polygon id="_513955360" class="fil3" points="1023.74,1498.74 1023.67,1496.4 1023.49,1491.07 1235.04,1239.34 1235.08,1239.38 1023.74,1490.86 1023.77,1498.72 "/>
   <path id="_513956008" class="fil11" d="M1611.37 1785.44l-1.16693 0 -1.63465 -295.569 -251.412 -168.62c-0.773623,-1.20236 -1.45276,-2.34331 -2.04095,-3.39685l3.18898 2.13898 251.412 168.613 1.65354 296.834z"/>
   <path id="_513939976" class="fil12" d="M1357.16 1321.25l-122.072 -81.8729 1.0937 -1.29567 118.937 79.7717c0.588189,1.05354 1.26732,2.19449 2.04095,3.39685z"/>
   <polygon id="_513958048" class="fil13" points="1610.2,1785.44 1024.57,1785.44 1023.89,1542.29 1023.77,1498.72 1023.74,1490.86 1235.08,1239.38 1357.16,1321.25 1608.57,1489.87 "/>
   <path id="_513962560" class="fil12" d="M1300.5 827.322c-0.275197,-0.0437008 -0.558662,-0.080315 -0.84567,-0.119291 6.89882,-31.3075 6.69567,-65.1863 5.40237,-97.0158 -0.0295276,-0.588189 -0.0578741,-1.17638 -0.0838583,-1.77284 0.414567,0.0838583 0.825591,0.166536 1.22835,0.246851 0,0.0944883 0.0106299,0.174803 0.0106299,0.258662 1.29449,31.8402 1.49764,65.7083 -5.39882,97.0182 -0.101575,0.467717 -0.20315,0.925985 -0.312992,1.38425z"/>
   <path id="_513964528" class="fil4" d="M1306.2 728.66c-0.402756,-0.080315 -0.81378,-0.162992 -1.22835,-0.246851 -1.12205,-0.229134 -2.27717,-0.458268 -3.45473,-0.698032 1.60866,0.284646 3.1689,0.570473 4.67599,0.836221 0,0.0366142 0.00708662,0.0826772 0.00708662,0.108662z"/>
   <path id="_513968776" class="fil11" d="M1468.56 424.507l-445.969 -163.214 446.162 162.425c-0.0649607,0.255118 -0.138189,0.523229 -0.19252,0.788977z"/>
   <path id="_513943696" class="fil12" d="M1301.52 727.716c-49.2142,-8.75906 -143.962,-22.8012 -282.351,-31.2154 -0.992127,-0.0543308 -1.97599,-0.119291 -2.96811,-0.174803l0.0177165 -1.34764c2.11417,-0.138189 4.2437,-0.276378 6.3756,-0.414567 137.975,8.26536 230.511,23.4083 278.926,33.1524z"/>
   <polygon id="_513955480" class="fil11" points="1589.92,468.918 1526.44,445.685 1526.44,444.721 1589.92,467.826 "/>
   <polygon id="_513947008" class="fil14" points="1525.98,534.885 1525.98,444.547 1526.44,444.721 1526.44,534.757 "/>
   <path id="_513962800" class="fil15" d="M1420.41 970.572c-5.01378,-9.95552 12.6473,-53.8831 39.8563,-112.035 0.294095,0.120473 0.598819,0.229134 0.900001,0.341339 -26.4307,56.4331 -43.9784,99.6343 -40.7563,111.693zm145.975 -35.6516c-7.16339,-19.5898 -18.5327,-45.4866 -32.4366,-75.1879 0.0448819,-0.0106299 0.0838583,-0.0177165 0.127559,-0.0283465 13.9406,29.8311 25.2756,55.7457 32.3091,75.2162zm-118.45 -89.4698c-0.955513,-2.38701 -1.47874,-4.99489 -1.47874,-7.7315 0,-11.6622 9.45827,-21.1323 21.1311,-21.1323l0.220866 0 0 -264.565 0.458268 -0.127559 0 265.96 -0.211417 0c-11.6728,0 -21.1406,9.46064 -21.1406,21.1335 0,2.25709 0.359055,4.42559 1.02047,6.463zm21.3414 -420.685l-0.715749 -0.257481c0.0543308,-0.265748 0.127559,-0.533859 0.19252,-0.788977 3.26929,-12.4831 14.6303,-21.6851 28.1386,-21.6851 12.7748,0 23.6303,8.22875 27.5351,19.6831 -4.25433,-10.7929 -14.7685,-18.4335 -27.0662,-18.4335 -13.435,0 -24.7418,9.1004 -28.0843,21.4819z"/>
   <path id="_513952600" class="fil16" d="M1467.81 552.022l0 -120.913c0,-2.2748 0.257481,-4.47992 0.752363,-6.60119l0.715749 0.257481c-0.650788,2.42362 -1.00984,4.97717 -1.00984,7.61221l0 119.517 -0.458268 0.127559z"/>
   <path id="_513970192" class="fil15" d="M1549.58 830.922c-3.1689,-7.66654 -10.7185,-13.0677 -19.5331,-13.0677l-3.61063 0 0 -1.26732 3.14292 0c9.29292,0 17.1732,5.99764 20.0008,14.3351z"/>
   <g>
    <g>
     <path id="_513947200" class="fil3" d="M1022.59 261.293l567.793 207.791 0 49.767 -248.77 67.3146 0 150.679c0,0 -98.9729,-28.3134 -319.023,-42.2823 -214.329,12.8469 -319.024,42.2823 -319.024,42.2823l0 -150.679 -248.768 -67.3146 0 -49.767 567.792 -207.791z"/>
     <path id="_513944080" class="fil13" d="M704.03 735.578c0,0 11.7284,-2.80158 34.9618,-7.02638 1.50709,-0.265748 3.06733,-0.551575 4.67599,-0.836221 48.4146,-9.7441 140.951,-24.887 278.926,-33.1524 2.13189,0.138189 4.26142,0.276378 6.3756,0.414567l-2.72126 -184.915 -0.0437008 -2.84764 -3.61063 -245.922 -445.969 163.214c0.494882,2.12126 0.752363,4.32638 0.752363,6.60119l0 119.518 126.653 34.2744 0 150.677z"/>
    </g>
    <g>
     <polygon id="_513938728" class="fil13" points="518.749,534.757 518.749,445.685 455.27,468.918 455.27,517.584 "/>
     <path id="_513944704" class="fil17" d="M548.293 1007.81c24.0981,0 48.1961,-11.9953 75.5434,-35.9929 0.377953,-0.320079 0.689764,-0.741733 0.937796,-1.24606 3.22205,-12.0591 -14.3256,-55.2603 -40.7563,-111.693 0.301181,-0.112205 0.605906,-0.220866 0.900001,-0.341339 -0.147638,-0.311811 -0.285827,-0.614174 -0.432284,-0.925985 5.81339,-2.03032 10.4965,-6.48544 12.7642,-12.1606 0.661418,-2.0374 1.02047,-4.20591 1.02047,-6.463 0,-11.6728 -9.46772,-21.1335 -21.1406,-21.1335l-0.211417 0 0 -385.477c0,-2.63504 -0.359055,-5.18859 -1.00984,-7.61221 -3.34252,-12.3815 -14.6492,-21.4819 -28.0843,-21.4819 -12.2976,0 -22.8118,7.64056 -27.0662,18.4335 -0.999213,2.94685 -1.55079,6.10394 -1.55079,9.39213l0 385.478 -0.458268 0 0 1.26732 -3.61063 0c-8.81457,0 -16.3642,5.40119 -19.5331,13.0677 -0.726379,2.13307 -1.12205,4.41851 -1.12205,6.79725 0,10.3323 7.41142,18.9083 17.2134,20.7378 -0.196063,0.411024 -0.39567,0.836221 -0.588189,1.24725 0.0437008,0.0106299 0.0826772,0.0177165 0.127559,0.0283465 -13.9039,29.7012 -25.2732,55.5981 -32.4366,75.1879 -7.30276,20.2217 -9.95552,33.4748 -6.04252,36.8977 27.339,23.9977 51.4382,35.9929 75.5363,35.9929z"/>
    </g>
   </g>
   <path id="_513969832" class="fil18" d="M813.474 643.588c0,0.270473 0,0.214961 0.0011811,0l-0.0011811 0z"/>
   <path id="_513946456" class="fil18" d="M1234.49 643.588l-0.0011811 0c0.0011811,0.193701 0.0011811,0.240945 0.0011811,0z"/>
   <rect id="_513956512" class="fil19" x="255.999" y="255.999" width="1536" height="1536"/>
  </g>
  <rect class="fil19" width="2048" height="2048"/>
 </g>
</svg>
