<?xml version="1.0" encoding="UTF-8"?>
<!DOCTYPE svg PUBLIC "-//W3C//DTD SVG 1.1//EN" "http://www.w3.org/Graphics/SVG/1.1/DTD/svg11.dtd">
<!-- Creator: CorelDRAW -->
<svg xmlns="http://www.w3.org/2000/svg" xml:space="preserve" width="2048px" height="2048px" style="shape-rendering:geometricPrecision; text-rendering:geometricPrecision; image-rendering:optimizeQuality; fill-rule:evenodd; clip-rule:evenodd"
viewBox="0 0 2048 2048"
 xmlns:xlink="http://www.w3.org/1999/xlink">
 <defs>
  <style type="text/css">
   <![CDATA[
    .fil4 {fill:none}
    .fil1 {fill:#414141}
    .fil2 {fill:#7A7A7A;fill-rule:nonzero}
    .fil3 {fill:#9F9F9F;fill-rule:nonzero}
    .fil0 {fill:#ADADAE;fill-rule:nonzero}
   ]]>
  </style>
 </defs>
 <g id="Layer_x0020_1">
  <metadata id="CorelCorpID_0Corel-Layer"/>
  <path class="fil0" d="M592.718 1414.21l-35.9398 0 0 -35.941 0 -148.51c-0.0011811,-78.4442 25.9937,-152.067 70.6477,-211.777 44.8689,-59.9977 108.653,-105.954 183.89,-128.626l18.6898 -5.62914 14.8642 12.789c25.7256,22.1315 54.7843,39.2681 85.8568,50.8122 29.3055,10.8874 60.7512,16.8402 93.215,17.3575l0.66378 0.00944883c1.32047,0.0177165 2.64331,0.0283465 3.96851,0.0283465 33.7996,0 66.7382,-5.99056 97.5391,-17.387 31.0512,-11.4886 59.9918,-28.4421 85.5249,-50.263l15.8091 -13.513 19.5697 7.05473c80.4296,28.9949 139.345,70.8532 179.535,127.321 40.0394,56.2559 60.5764,125.754 64.441,210.314l0 1.54488 0.090945 148.473 0.0212599 35.941 -35.8217 0 -431.126 0 -0.214961 0 -431.223 0z"/>
  <path class="fil0" d="M1023.94 940.574c-73.5012,-0.0271654 -140.047,-29.837 -188.225,-78.0166 -48.2008,-48.2008 -78.0142,-114.79 -78.0142,-188.333 0.0011811,-73.5449 29.811,-140.132 78.0107,-188.332 48.176,-48.1772 114.722,-77.9823 188.229,-78.0107l0.102756 0 1.11614 0.00708662c73.0879,0.3 139.249,30.0579 187.208,78.0166 48.2032,48.2032 78.0249,114.789 78.0249,188.319 0,73.5249 -29.8252,140.113 -78.0308,188.32 -48.0768,48.0756 -114.441,77.8666 -187.734,78.026l-0.584646 0.00354331 -0.102756 0z"/>
  <path class="fil1" d="M1000.14 1255c-13.6819,-8.3752 -22.9122,-22.5071 -24.2433,-38.9055l-5.55709 -68.3823c-2.2748,-27.991 18.6579,-52.8024 46.6843,-55.0843 28.0784,-2.28189 52.8154,18.7465 55.0973,46.8178l5.55 68.3835c1.60512,19.6512 -8.5004,37.8744 -25.0606,47.5678l-2.28898 203.523 -52.8012 0 2.61969 -203.92z"/>
  <polygon class="fil2" points="291.947,1408 1756.06,1408 1792,1408 1792,1443.94 1792,1687.59 1792,1723.53 1756.06,1723.53 291.947,1723.53 256.006,1723.53 256.006,1687.59 256.006,1443.94 256.006,1408 "/>
  <polygon class="fil3" points="1792,1518.65 1792,1552.34 256.006,1552.34 256.006,1518.65 "/>
  <rect class="fil4" x="255.999" y="255.999" width="1536" height="1536"/>
  <rect class="fil4" width="2048" height="2048"/>
 </g>
</svg>
