<?xml version="1.0" encoding="UTF-8"?>
<!DOCTYPE svg PUBLIC "-//W3C//DTD SVG 1.1//EN" "http://www.w3.org/Graphics/SVG/1.1/DTD/svg11.dtd">
<!-- Creator: CorelDRAW -->
<svg xmlns="http://www.w3.org/2000/svg" xml:space="preserve" width="2048px" height="2048px" style="shape-rendering:geometricPrecision; text-rendering:geometricPrecision; image-rendering:optimizeQuality; fill-rule:evenodd; clip-rule:evenodd"
viewBox="0 0 2048 2048"
 xmlns:xlink="http://www.w3.org/1999/xlink">
 <defs>
  <style type="text/css">
   <![CDATA[
    .fil5 {fill:none}
    .fil0 {fill:#545454}
    .fil4 {fill:#6A6A6A}
    .fil3 {fill:#727272}
    .fil2 {fill:#AAAAAA}
    .fil1 {fill:#DEDEDE}
   ]]>
  </style>
 </defs>
 <g id="Layer_x0020_1">
  <metadata id="CorelCorpID_0Corel-Layer"/>
  <path class="fil0" d="M328.379 489.248l1391.16 0c19.8248,0 37.8461,7.99489 50.9729,20.9055 13.2827,13.0654 21.4914,31.0807 21.4914,50.9185l0 925.875c0,19.8437 -8.20749,37.8485 -21.489,50.9032 -13.1303,12.9083 -31.1551,20.8984 -50.9752,20.8984l-1391.16 0c-19.7894,0 -37.8,-7.99371 -50.9067,-20.9079 -13.2579,-13.0642 -21.4666,-31.0654 -21.4666,-50.8937l0 -925.875c0,-19.8236 8.20985,-37.8331 21.4701,-50.9079 13.1008,-12.9165 31.1079,-20.9162 50.9032,-20.9162z"/>
  <path class="fil1" d="M328.379 529.248c-8.59725,0 -16.7032,3.36969 -22.8201,9.39922 -6.05434,5.9693 -9.55394,13.8827 -9.55394,22.4256l0 925.875c0,8.53583 3.49016,16.4386 9.54213,22.402 6.1193,6.03071 14.2323,9.4004 22.8319,9.4004l1391.16 0c8.63741,0 16.7799,-3.37441 22.9347,-9.42402 6.0567,-5.95394 9.53032,-13.8473 9.53032,-22.3784l0 -925.875c0,-8.53701 -3.48189,-16.4421 -9.54095,-22.402 -6.15119,-6.04961 -14.289,-9.42284 -22.924,-9.42284l-1391.16 0z"/>
  <path class="fil2" d="M416 639.996c-17.6728,0 -32.0008,14.328 -32.0008,32.0008 0,17.6728 14.328,32.0008 32.0008,32.0008l1216 0c17.6728,0 32.0008,-14.328 32.0008,-32.0008 0,-17.6728 -14.328,-32.0008 -32.0008,-32.0008l-1216 0z"/>
  <path class="fil2" d="M480.955 1312c-17.6728,0 -32.0008,14.328 -32.0008,32.0008 0,17.6728 14.328,32.0008 32.0008,32.0008l544.001 0c17.6728,0 32.0008,-14.328 32.0008,-32.0008 0,-17.6728 -14.328,-32.0008 -32.0008,-32.0008l-544.001 0z"/>
  <path class="fil2" d="M480.955 1087.99c-17.6728,0 -32.0008,14.328 -32.0008,32.0008 0,17.6728 14.328,32.0008 32.0008,32.0008l544.001 0c17.6728,0 32.0008,-14.328 32.0008,-32.0008 0,-17.6728 -14.328,-32.0008 -32.0008,-32.0008l-544.001 0z"/>
  <path class="fil2" d="M480.955 864.001c-17.6728,0 -32.0008,14.328 -32.0008,32.0008 0,17.6728 14.328,32.0008 32.0008,32.0008l544.001 0c17.6728,0 32.0008,-14.328 32.0008,-32.0008 0,-17.6728 -14.328,-32.0008 -32.0008,-32.0008l-544.001 0z"/>
  <path class="fil3" d="M1209.57 1412.69l-16.9004 0 -32.0008 0 0 -32.0008 0 -16.9004 0 -69.8315c0,-21.4795 3.58347,-42.5292 10.2484,-62.5099 6.81615,-20.4343 16.7764,-39.3886 29.3469,-56.1969 12.5717,-16.8106 28.0028,-31.7575 45.7548,-44.1733 17.2961,-12.0969 36.5422,-21.5799 57.2138,-27.8079l8.78741 -2.64685 16.6382 -5.0126 13.2366 11.387 6.98977 6.013c4.57559,3.93662 9.49725,7.45985 14.6988,10.5378 5.34331,3.16299 10.7138,5.75079 16.0477,7.7315 5.11063,1.89803 10.7599,3.40512 16.8921,4.49528 5.79449,1.02992 11.811,1.55788 17.9929,1.55788 6.10394,0 12.0732,-0.527953 17.8465,-1.55669 5.84528,-1.04173 11.5394,-2.59134 17.0185,-4.61811 5.74961,-2.12717 11.1036,-4.6441 15.9969,-7.52008 4.96654,-2.91851 9.80906,-6.38268 14.4685,-10.3654l7.43386 -6.35315 14.0752 -12.0307 17.4248 6.28111 9.20198 3.31654c21.7725,7.84843 40.728,17.5075 57.0556,29.0906 16.9382,12.0177 31.0796,26.0729 42.6142,42.2788 11.3953,16.011 20.0067,33.8729 26.0292,53.7059 5.80158,19.1043 9.12166,39.8303 10.148,62.3126l0.125197 1.3748 0 0.725197 -0.125197 0 0.0437008 69.815 0.00944883 16.9004 0.0177165 32.0008 -31.8933 0 -16.8437 0 -405.593 0z"/>
  <path class="fil4" d="M1523.57 1046.62c-28.4587,28.4587 -67.7717,46.0678 -111.177,46.0678 -43.4162,0 -82.7268,-17.6032 -111.182,-46.0595 -28.4563,-28.4575 -46.0583,-67.7682 -46.0583,-111.184 0,-43.4174 17.6008,-82.728 46.0571,-111.184 28.454,-28.454 67.7658,-46.0559 111.183,-46.0559 43.4091,0 82.7209,17.6055 111.18,46.063 28.4575,28.4575 46.0642,67.7693 46.0642,111.177 0,43.4055 -17.6091,82.7186 -46.0666,111.176z"/>
  <rect class="fil5" x="255.999" y="255.999" width="1536" height="1536"/>
  <rect class="fil5" width="2048" height="2048"/>
 </g>
</svg>
