<?xml version="1.0" encoding="UTF-8"?>
<!DOCTYPE svg PUBLIC "-//W3C//DTD SVG 1.1//EN" "http://www.w3.org/Graphics/SVG/1.1/DTD/svg11.dtd">
<!-- Creator: CorelDRAW -->
<svg xmlns="http://www.w3.org/2000/svg" xml:space="preserve" width="2048px" height="2048px" style="shape-rendering:geometricPrecision; text-rendering:geometricPrecision; image-rendering:optimizeQuality; fill-rule:evenodd; clip-rule:evenodd"
viewBox="0 0 2048 2048"
 xmlns:xlink="http://www.w3.org/1999/xlink">
 <defs>
  <style type="text/css">
   <![CDATA[
    .str0 {stroke:black;stroke-width:1.99961}
    .fil0 {fill:none}
    .fil2 {fill:#7E7E7E}
    .fil12 {fill:#8B8C8C}
    .fil11 {fill:#BEBEBE}
    .fil10 {fill:#F1F1F2}
    .fil5 {fill:#202020;fill-rule:nonzero}
    .fil6 {fill:#414141;fill-rule:nonzero}
    .fil3 {fill:#474747;fill-rule:nonzero}
    .fil8 {fill:#6A6A6A;fill-rule:nonzero}
    .fil9 {fill:#ABABAB;fill-rule:nonzero}
    .fil7 {fill:#B3B3B3;fill-rule:nonzero}
    .fil1 {fill:#CECECE;fill-rule:nonzero}
    .fil4 {fill:#D7D7D7;fill-rule:nonzero}
   ]]>
  </style>
 </defs>
 <g id="Layer_x0020_1">
  <metadata id="CorelCorpID_0Corel-Layer"/>
  <rect class="fil0" x="255.999" y="255.999" width="1536" height="1536"/>
  <g id="_513949984">
   <polygon id="_513946120" class="fil1" points="868.724,1127.16 791.278,1347.38 1002.03,1464.8 1286.12,1372.26 1176.97,1126.27 "/>
   <path id="_513938128" class="fil2" d="M587.693 505.189l-0.585827 136.74c-13.3016,4.67953 -22.8591,17.413 -22.8591,32.3362 0,11.1189 5.17441,20.9669 13.3016,27.2941 -2.59725,18.8374 -11.2902,32.4213 -21.7252,42.1843 -8.42953,7.75631 -12.8126,18.8563 -12.0543,30.2469 0.657875,11.3953 6.51851,21.9012 15.7795,28.5189l4.79764 3.42756c8.79213,6.22205 19.7929,8.52284 30.326,6.01772 10.6323,-2.37284 19.6288,-9.08268 24.8882,-18.4417 18.1795,-32.5547 9.35906,-74.7379 3.33544,-94.9205 6.22205,-6.22205 10.1362,-14.85 10.1362,-24.3272 0,-14.824 -9.45119,-27.5587 -22.6595,-32.3362l0.467717 -130.519 -23.1484 -6.22087z"/>
   <path id="_513962056" class="fil3" d="M1341.39 767.195c0,-158.838 -142.491,-287.59 -318.314,-287.59 -175.786,0 -318.305,128.752 -318.305,287.59 0,158.824 142.519,287.583 318.305,287.583 175.824,0 318.314,-128.759 318.314,-287.583z"/>
   <path id="_513965632" class="fil4" d="M1300.4 802.82c-1.09252,0 -2.13898,0.364961 -3.2315,0.487796 -19.2118,-167.556 -131.175,-296.287 -266.85,-296.287 -135.931,0 -248.079,129.236 -266.971,297.257 -21.965,6.60355 -38.4697,35.1118 -38.4697,69.2823 0,37.3063 19.7634,67.5532 44.7532,70.219 17.8736,86.2843 60.965,159.201 118.417,205.267 85.1446,114.386 174.689,122.392 269.661,-0.779528 64.8981,-45.0827 114.234,-111.545 133.467,-205.342 2.99882,0.853938 6.07205,1.37717 9.22324,1.37717 26.6327,0 48.2162,-31.6772 48.2162,-70.7422 0,-39.0709 -21.5835,-70.7398 -48.2162,-70.7398z"/>
   <path id="_513961696" class="fil5" d="M714.675 570.062l0 145.683c0,0 95.6871,-27.3827 308.405,-40.8756 207.206,12.4122 308.417,40.8756 308.417,40.8756l0 -145.683 -616.822 0z"/>
   <polygon id="_513947920" class="fil6" points="1023.08,255.999 474.185,456.884 474.185,504.995 714.675,570.062 1331.5,570.062 1571.98,504.995 1571.98,456.884 "/>
   <path id="_513965872" class="fil6" d="M1325.6 714.206c-0.113386,-0.0248032 -0.229134,-0.0602363 -0.344882,-0.0874016l0 -1.1811c0.115748,0.426378 0.231496,0.843308 0.344882,1.2685z"/>
   <path id="_513966640" class="fil3" d="M1016.84 528.417l-0.186614 -21.3969c0.0625985,0 0.125197,0 0.186614,0l0 21.3969z"/>
   <path id="_513966256" class="fil6" d="M1016.84 675.27l0 -195.026 0 194.626c1.07362,0.0602363 2.14134,0.122835 3.21378,0.193701 -1.07244,0.0732284 -2.14725,0.133465 -3.21378,0.206693z"/>
   <polygon id="_513938680" class="fil7" points="1016.84,258.29 1016.84,255.999 1019.96,257.145 "/>
   <path id="_513959632" class="fil8" d="M1325.26 715.744c0,0 -21.9201,-6.17008 -66.2304,-14.0102 -0.151181,-0.389764 -0.294095,-0.772442 -0.445276,-1.16221 34.4752,5.92205 56.6339,11.0528 66.6756,13.5473l0 1.6252z"/>
   <path id="_513954184" class="fil9" d="M1259.03 701.734l0 0c-26.8996,-4.75867 -62.0575,-10.1291 -105.569,-15.1299 0.21378,-0.20315 0.435827,-0.414567 0.647245,-0.628347 42.5351,4.76575 77.3197,9.92481 104.477,14.5961 0.151181,0.389764 0.294095,0.772442 0.445276,1.16221z"/>
   <path id="_513957592" class="fil8" d="M1153.46 686.604c-1.85433,-0.211417 -3.71221,-0.414567 -5.59489,-0.628347 -36.7902,-4.12796 -79.376,-7.95591 -127.808,-10.9122 1.00394,-0.0708662 2.01496,-0.133465 3.02717,-0.193701 49.7705,2.98229 93.4241,6.88819 131.023,11.1059 -0.211417,0.21378 -0.433465,0.425197 -0.647245,0.628347z"/>
   <g>
    <rect id="_513944776" class="fil10" x="841.415" y="1347.21" width="390.641" height="444.786"/>
    <rect id="_513952576" class="fil2" x="989.871" y="1464.8" width="68.2597" height="327.194"/>
    <polygon id="_513937936" class="fil11" points="1024.4,1345.42 1224.28,1561.33 1228.27,1188.57 "/>
    <polygon id="_513952528" class="fil11" points="1024.4,1345.42 824.515,1561.33 820.527,1188.57 1003.36,1329.23 "/>
    <polygon id="_513958624" class="fil6" points="819.784,1187.14 462.11,1463.98 462.346,1792 1024,1792 "/>
    <polygon id="_513938440" class="fil6" points="1584.3,1463.98 1226.63,1187.14 1024,1792 1024.13,1792 1585.89,1792 "/>
    <polygon id="_513954016" class="fil12" points="1024,1346.26 1099.66,1425.29 1024,1504.32 948.342,1425.29 "/>
   </g>
   <line id="_513940408" class="fil0 str0" x1="714.675" y1="570.062" x2="1331.5" y2= "570.062" />
  </g>
  <rect class="fil0" width="2048" height="2048"/>
 </g>
</svg>
