<?xml version="1.0" encoding="UTF-8"?>
<!DOCTYPE svg PUBLIC "-//W3C//DTD SVG 1.1//EN" "http://www.w3.org/Graphics/SVG/1.1/DTD/svg11.dtd">
<!-- Creator: CorelDRAW -->
<svg xmlns="http://www.w3.org/2000/svg" xml:space="preserve" width="2048px" height="2048px" style="shape-rendering:geometricPrecision; text-rendering:geometricPrecision; image-rendering:optimizeQuality; fill-rule:evenodd; clip-rule:evenodd"
viewBox="0 0 2048 2048"
 xmlns:xlink="http://www.w3.org/1999/xlink">
 <defs>
  <style type="text/css">
   <![CDATA[
    .fil15 {fill:none}
    .fil14 {fill:#202020;fill-rule:nonzero}
    .fil12 {fill:#353535;fill-rule:nonzero}
    .fil8 {fill:#3C3C3C;fill-rule:nonzero}
    .fil4 {fill:#3E3E3E;fill-rule:nonzero}
    .fil13 {fill:#3F3F3F;fill-rule:nonzero}
    .fil3 {fill:#4B4B4B;fill-rule:nonzero}
    .fil0 {fill:#848484;fill-rule:nonzero}
    .fil5 {fill:darkgray;fill-rule:nonzero}
    .fil6 {fill:#AFAFAF;fill-rule:nonzero}
    .fil11 {fill:#B3B3B3;fill-rule:nonzero}
    .fil10 {fill:#BEBEBE;fill-rule:nonzero}
    .fil1 {fill:#CECECE;fill-rule:nonzero}
    .fil9 {fill:#DBDBDB;fill-rule:nonzero}
    .fil7 {fill:#EEEEEE;fill-rule:nonzero}
    .fil2 {fill:#FEFEFF;fill-rule:nonzero}
   ]]>
  </style>
 </defs>
 <g id="Layer_x0020_1">
  <metadata id="CorelCorpID_0Corel-Layer"/>
  <path class="fil0" d="M1320.02 939.244c-4.59922,-41.1532 4.56615,-82.2662 8.57835,-123.604 3.14173,-32.4177 12.8209,-58.8119 13.024,-105.574l-325.462 -208.159c-0.46063,1.92874 -0.754725,3.85748 -1.14803,5.79449 -0.38504,-1.93701 -0.696851,-3.86575 -1.14803,-5.79449l-309.409 209.405c-0.935434,42.678 2.46969,70.0831 5.6126,102.52 4.00276,41.3268 4.54489,84.2587 -0.0661418,125.412 -6.82323,60.9934 31.8201,140.581 26.0044,212.756 -6.89292,85.5402 197.496,211.174 194.838,216.329 -205.397,398.202 384.774,74.6611 317.163,-56.3292 -2.22638,-4.31339 84.3426,-262.526 72.013,-372.755z"/>
  <path class="fil1" d="M1295.31 826.928c-1.13032,0 -2.20512,0.375591 -3.33544,0.505512 -19.8732,-173.325 -135.689,-306.497 -276.033,-306.497 -140.613,0 -256.631,133.696 -276.164,307.49 -22.7103,6.84922 -39.8032,36.3307 -39.8032,71.6776 0,38.5914 20.4532,69.8693 46.2957,72.626 18.4961,89.2654 63.0745,164.689 122.491,212.345l0 84.2056 279.379 0 -0.432284 -85.0229c67.1327,-46.6264 118.178,-115.384 138.069,-212.392 3.09567,0.871654 6.27166,1.40551 9.53387,1.40551 27.5575,0 49.8933,-32.7591 49.8933,-73.167 0,-40.4079 -22.3358,-73.1753 -49.8933,-73.1753z"/>
  <path class="fil2" d="M1235.04 1239.34c0,0 -10.5614,-79.9099 -54.6237,-54.9839 -80.4875,45.541 -149.164,64.4327 -165.932,67.6193 -16.7622,-3.18662 -79.7788,-16.9914 -160.266,-62.5217 -44.0705,-24.9343 -44.0705,49.8863 -44.0705,49.8863l212.446 260.661 212.446 -260.661z"/>
  <polygon class="fil3" points="1608.57,1489.87 1235.04,1239.34 1022.59,1492.13 810.147,1239.34 436.629,1489.87 436.874,1786.71 1610.21,1786.71 "/>
  <polygon class="fil4" points="1023.89,1542.29 1023.89,1542.29 1023.67,1496.4 1023.74,1498.74 1023.77,1498.72 "/>
  <path class="fil5" d="M1148.87 1183.46l-0.0106299 -0.458268c21.0496,-14.6221 40.5201,-31.4185 57.9308,-50.576 -17.3929,19.3323 -36.8622,36.2847 -57.9201,51.0343zm146.444 -210.187c-2.96811,0 -5.86063,-0.441733 -8.69056,-1.18465 0.101575,-0.497244 0.20315,-0.990946 0.304725,-1.49646 3.09567,0.890552 6.27166,1.41378 9.5315,1.41378 10.2768,0 19.8177,-4.54489 27.7453,-12.3532 0.00708662,0.0295276 0.0177165,0.0661418 0.0177165,0.0921261 -0.38504,0.405118 -0.770079,0.791339 -1.16575,1.17638 -7.93465,7.80709 -17.4756,12.352 -27.7429,12.352z"/>
  <path class="fil6" d="M1326.68 840.611c-0.283465,-0.320079 -0.577559,-0.63189 -0.871654,-0.944883 1.02756,-8.01024 2.00197,-16.0075 2.78268,-24.026 2.49921,-25.7587 9.1193,-47.7166 11.8394,-79.1174 0.484252,0.129921 0.825591,0.220866 1.00984,0.275197 -2.79331,30.5729 -9.23859,52.2378 -11.6906,77.5749 -0.853938,8.75198 -1.93937,17.4969 -3.06969,26.2382z"/>
  <path class="fil6" d="M1341.62 734.906l0 -26.8524 1.15512 0.744095c-0.046063,9.4689 -0.475985,18.0933 -1.15512,26.1083z"/>
  <polygon class="fil7" points="1016.2,1268.02 1016.2,1267.99 "/>
  <path class="fil8" d="M1147.8 1201.06l-0.090945 -16.8071c0.38504,-0.265748 0.77126,-0.533859 1.15866,-0.799607l0.080315 17.028c-0.38504,0.19252 -0.770079,0.386221 -1.14803,0.578741zm58.9878 -68.641c37.5697,-41.7579 65.4721,-94.6383 78.9898,-160.558 0.284646,0.0732284 0.559843,0.145276 0.843308,0.220866 -13.7728,65.902 -41.9764,118.699 -79.8331,160.337z"/>
  <path class="fil9" d="M1325.9 957.907c11.7461,-13.3807 19.3028,-34.2933 19.3028,-57.8032 0,-23.7496 -7.7126,-44.8618 -19.6807,-58.2343 0.101575,-0.734646 0.19252,-1.46811 0.284646,-2.20276 0.294095,0.312992 0.588189,0.624804 0.871654,0.944883 11.9492,13.363 19.6618,34.4752 19.6618,58.2248 0,24.254 -8.04331,45.7618 -20.4402,59.0705z"/>
  <path class="fil4" d="M1235.08 1239.38l-0.0448819 -0.0354331c0,0 -7.90867,-59.7969 -38.5618,-59.7969 -4.78465,0 -10.1209,1.45276 -16.0618,4.813 -11.1319,6.3 -22.0417,12.0839 -32.6138,17.3929l0 -0.687402c0.377953,-0.19252 0.762993,-0.386221 1.14803,-0.578741 10.5721,-5.31024 21.4819,-11.0941 32.6114,-17.387 5.94331,-3.36851 11.2795,-4.82126 16.0536,-4.82126 30.6567,0 38.563,59.8052 38.563,59.8052l0 0 -1.0937 1.29567z"/>
  <path class="fil1" d="M1015.67 1251.75l-0.0366142 -1.03819c0.229134,-0.0472441 0.458268,-0.090945 0.7063,-0.138189 15.2988,-3.04843 67.1434,-17.3658 131.464,-49.5083l0 0.687402c-64.193,32.2252 -116.154,46.728 -132.134,49.9973z"/>
  <path class="fil10" d="M1023.49 1491.07l-7.29213 -223.044 0 -0.0366142 -0.531496 -16.2366c15.9791,-3.26929 67.9406,-17.7721 132.134,-49.9973 10.5721,-5.30906 21.4819,-11.0929 32.6138,-17.3929 5.94095,-3.36024 11.2772,-4.813 16.0618,-4.813 30.6532,0 38.5618,59.7969 38.5618,59.7969l0 0 -211.547 251.724z"/>
  <polygon class="fil3" points="1023.74,1498.74 1023.67,1496.4 1023.49,1491.07 1235.04,1239.34 1235.08,1239.38 1023.74,1490.86 1023.77,1498.72 "/>
  <path class="fil11" d="M1611.37 1785.44l-1.16693 0 -1.63465 -295.569 -251.412 -168.62c-0.773623,-1.20236 -1.45276,-2.34331 -2.04095,-3.39685l3.18898 2.13898 251.412 168.613 1.65354 296.834z"/>
  <path class="fil12" d="M1357.16 1321.25l-122.072 -81.8729 1.0937 -1.29567 118.937 79.7717c0.588189,1.05354 1.26732,2.19449 2.04095,3.39685z"/>
  <polygon class="fil13" points="1610.2,1785.44 1024.57,1785.44 1023.89,1542.29 1023.77,1498.72 1023.74,1490.86 1235.08,1239.38 1357.16,1321.25 1608.57,1489.87 "/>
  <path class="fil4" d="M1306.2 728.66c-0.402756,-0.080315 -0.81378,-0.162992 -1.22835,-0.246851 -1.12205,-0.229134 -2.27717,-0.458268 -3.45473,-0.698032 1.60866,0.284646 3.1689,0.570473 4.67599,0.836221 0,0.0366142 0.00708662,0.0826772 0.00708662,0.108662z"/>
  <path class="fil11" d="M1468.56 424.507l-445.969 -163.214 446.162 162.425c-0.0649607,0.255118 -0.138189,0.523229 -0.19252,0.788977z"/>
  <path class="fil3" d="M1022.59 261.293l567.793 207.791 0 49.767 -248.77 67.3146 0 150.679c-36.2658,-51.404 -202.382,-174.884 -319.023,-42.2823 -168.111,-125.12 -302.027,-8.45788 -319.024,42.2823l0 -150.679 -248.768 -67.3146 0 -49.767 567.792 -207.791z"/>
  <path class="fil14" d="M813.474 643.588c0,0.270473 0,0.214961 0.0011811,0l-0.0011811 0z"/>
  <path class="fil14" d="M1234.49 643.588l-0.0011811 0c0.0011811,0.193701 0.0011811,0.240945 0.0011811,0z"/>
  <rect class="fil15" x="255.999" y="255.999" width="1536" height="1536"/>
  <rect class="fil15" width="2048" height="2048"/>
 </g>
</svg>
