<?xml version="1.0" encoding="UTF-8"?>
<!DOCTYPE svg PUBLIC "-//W3C//DTD SVG 1.1//EN" "http://www.w3.org/Graphics/SVG/1.1/DTD/svg11.dtd">
<!-- Creator: CorelDRAW -->
<svg xmlns="http://www.w3.org/2000/svg" xml:space="preserve" width="2048px" height="2048px" style="shape-rendering:geometricPrecision; text-rendering:geometricPrecision; image-rendering:optimizeQuality; fill-rule:evenodd; clip-rule:evenodd"
viewBox="0 0 2048 2048"
 xmlns:xlink="http://www.w3.org/1999/xlink">
 <defs>
  <style type="text/css">
   <![CDATA[
    .fil0 {fill:none}
    .fil1 {fill:#424343}
    .fil4 {fill:#545454}
    .fil5 {fill:#7E7E7E}
    .fil3 {fill:#888888}
    .fil2 {fill:#E1E1E2}
    .fil6 {fill:white}
   ]]>
  </style>
 </defs>
 <g id="Layer_x0020_1">
  <metadata id="CorelCorpID_0Corel-Layer"/>
  <rect class="fil0" x="255.999" y="255.999" width="1536" height="1536"/>
  <g id="_495652040">
   <path id="_495627632" class="fil1" d="M1372.27 495.247l330.421 0 0 0.142913 0.418111 0.00236221 0.142913 0c25.4173,0.19252 47.7118,10.7055 63.6083,27.4429 15.6898,16.5142 25.1492,38.9599 25.1492,63.3036l-0.142913 0 -0.0011811 0.445276 0.142913 0 0 952.308c0,24.8681 -9.70276,47.4579 -25.8331,63.9343 -16.0831,16.4268 -38.3091,26.5087 -63.4843,26.5087l-1357.15 0c-50.8878,0 -89.5453,-40.4965 -89.5453,-90.443l0 -952.528c0,-24.6862 9.77245,-47.5075 25.9347,-64.1516 16.1197,-16.5992 38.4,-26.9658 63.6107,-26.9658l361.316 0 665.418 0z"/>
   <path id="_495647360" class="fil2" d="M1736.93 631.73l-0.214961 0 0.0885827 -33.3555c-0.901182,-13.8921 -6.54331,-27.0839 -16.1988,-37.2473 -10.6654,-11.2287 -24.9225,-17.4898 -40.4363,-17.4898l-0.705119 -0.00236221 -24.3543 -0.138189 -1286.52 0c-15.5492,0 -29.8524,6.12993 -40.6595,17.2583 -10.8662,11.191 -16.8638,26.1981 -16.8638,41.7827l0 920.159c0,32.5748 24.6815,58.3902 57.5233,58.3902l1311.04 0c15.4677,0 29.7945,-5.84646 40.6193,-16.9028 10.8969,-11.1307 16.6831,-25.9406 16.6831,-41.4874l0 -890.966z"/>
   <path id="_495652712" class="fil3" d="M438.311 1116.83c-20.2169,0 -36.6071,16.3902 -36.6071,36.6071 0,20.2158 16.3902,36.6059 36.6071,36.6059l1171.38 0c20.2158,0 36.6059,-16.3902 36.6059,-36.6059 0,-20.2169 -16.3902,-36.6071 -36.6059,-36.6071l-1171.38 0z"/>
   <path id="_495627512" class="fil4" d="M438.311 1336.47c-20.2169,0 -36.6071,16.3902 -36.6071,36.6059 0,20.2169 16.3902,36.6071 36.6071,36.6071l1171.38 0c20.2158,0 36.6059,-16.3902 36.6059,-36.6071 0,-20.2158 -16.3902,-36.6059 -36.6059,-36.6059l-1171.38 0z"/>
   <polygon id="_495633632" class="fil5" points="1024,714.175 1061.23,811.288 1163.26,815.352 1082.4,880.772 1110.06,979.058 1022.86,922.378 937.935,979.058 964.894,878.609 884.744,815.352 988.608,809.951 "/>
   <g>
    <circle id="_495629792" class="fil1" cx="1024" cy="476.298" r="57.6319"/>
    <circle id="_495632192" class="fil6" cx="1024" cy="476.298" r="23.3693"/>
   </g>
  </g>
  <rect class="fil0" width="2048" height="2048"/>
 </g>
</svg>
