<?xml version="1.0" encoding="UTF-8"?>
<!DOCTYPE svg PUBLIC "-//W3C//DTD SVG 1.1//EN" "http://www.w3.org/Graphics/SVG/1.1/DTD/svg11.dtd">
<!-- Creator: CorelDRAW -->
<svg xmlns="http://www.w3.org/2000/svg" xml:space="preserve" width="2048px" height="2048px" style="shape-rendering:geometricPrecision; text-rendering:geometricPrecision; image-rendering:optimizeQuality; fill-rule:evenodd; clip-rule:evenodd"
viewBox="0 0 2048 2048"
 xmlns:xlink="http://www.w3.org/1999/xlink">
 <defs>
  <style type="text/css">
   <![CDATA[
    .fil0 {fill:none}
    .fil3 {fill:#555555}
    .fil5 {fill:#A1A1A1}
    .fil4 {fill:#B8B8B8}
    .fil2 {fill:#555555;fill-rule:nonzero}
    .fil1 {fill:#888888;fill-rule:nonzero}
   ]]>
  </style>
 </defs>
 <g id="Layer_x0020_1">
  <metadata id="CorelCorpID_0Corel-Layer"/>
  <rect class="fil0" x="255.999" y="255.999" width="1536" height="1536"/>
  <g id="_495631808">
   <path id="_495623288" class="fil1" d="M1477.26 1649.45l-641.216 0 -18.6744 0 -11.5583 -14.9681 -201.949 -261.533 -15.1299 -19.5969 11.5382 -21.7122c3.80079,-7.15276 6.82914,-14.7662 8.85473,-22.7209 1.87087,-7.35355 2.89725,-15.0898 2.89725,-23.1248 0,-8.20985 -1.04764,-16.0689 -2.96811,-23.5807 -1.97126,-7.70434 -4.88032,-15.1583 -8.54056,-22.3441l-11.6811 -22.9323 17.0693 -19.5744 358.068 -401.909 -46.878 -67.9678 -394.127 443.083 -25.7433 13.0228c-27.8362,2.21457 -52.5863,14.5193 -70.2603,33.1453 -17.1496,18.0732 -27.6177,42.2882 -27.6177,69.0579 0,26.9445 10.6347,51.3142 27.9898,69.4914 17.8323,18.6732 42.7607,30.9319 70.6642,32.9681l17.0504 1.2437 10.4894 13.5744 142.754 184.713 47.6599 61.6654 -77.8926 0 -84.7111 0c-18.724,0 -35.5642,7.30867 -47.6351,19.1433 -11.9032,11.6717 -19.2756,27.8197 -19.2756,45.704 0,17.7685 7.40434,33.9319 19.3606,45.652 12.0744,11.8347 28.8839,19.1823 47.55,19.1823l923.912 0c18.8221,0 35.7508,-7.38662 47.9268,-19.2898 11.9114,-11.6433 19.2721,-27.7689 19.2721,-45.5445 0,-17.8914 -7.32638,-34.0004 -19.187,-45.5965 -12.1713,-11.8996 -29.1319,-19.2508 -48.0118,-19.2508z"/>
   <path id="_495621920" class="fil2" d="M1477.26 1649.45l-659.891 0 -101.418 0 -162.604 0c-18.724,0 -35.5642,7.30867 -47.6351,19.1433 -11.9032,11.6717 -19.2756,27.8197 -19.2756,45.704 0,17.7685 7.40434,33.9319 19.3606,45.652 12.0744,11.8347 28.8839,19.1823 47.55,19.1823l923.912 0c18.8221,0 35.7508,-7.38662 47.9268,-19.2898 11.9114,-11.6433 19.2721,-27.7689 19.2721,-45.5445 0,-17.8914 -7.32638,-34.0004 -19.187,-45.5965 -12.1713,-11.8996 -29.1319,-19.2508 -48.0118,-19.2508z"/>
   <path id="_495637976" class="fil3" d="M957.129 825.957l154.479 269.804 178.327 -174.169 189.572 -185.655 175.792 -171.877 -359.514 -196.975 -1.92166 -0.511418 -2.67284 -0.758268c-6.19607,-1.75748 -12.1689,-3.63662 -18.1902,-5.95394l-5.3315 -2.0504 -22.7197 -14.1662 -4.40079 -4.17874c-23.7307,-22.5355 -51.4063,-40.4032 -81.8327,-52.4882 -30.7252,-12.2043 -63.4937,-18.1146 -96.5245,-18.1146 -33.5374,0 -66.763,6.21851 -97.8627,18.8221 -30.4512,12.339 -58.5189,30.1028 -81.802,53.387l-0.15 0.15c-23.1012,23.1 -42.4418,49.8898 -55.2154,80.0552 -12.5776,29.7024 -18.6969,61.5036 -18.6969,93.7324 0,31.6335 6.03426,62.863 18.189,92.0847 12.3036,29.5831 30.4134,56.2359 53.0256,78.9071l5.05158 5.06575 16.6595 27.4063 1.29567 4.02048 54.4441 103.462z"/>
   <path id="_495626504" class="fil4" d="M1289.93 921.592l52.3347 12.3331c21.4051,5.04331 44.0374,4.78583 65.2749,-0.973229 20.3729,-5.5252 38.8866,-15.8752 53.9882,-30.6614 14.5902,-14.2854 25.2307,-31.767 30.8032,-51.4347 5.56536,-19.6488 5.79213,-40.5579 0.833859,-60.3603l-13.663 -54.5587 -189.572 185.655z"/>
   <circle id="_495639536" class="fil3" cx="507.65" cy="1283.98" r="114.948"/>
   <circle id="_495649592" class="fil5" cx="507.65" cy="1283.98" r="63.7023"/>
  </g>
  <rect class="fil0" width="2048" height="2048"/>
 </g>
</svg>
