<?xml version="1.0" encoding="UTF-8"?>
<!DOCTYPE svg PUBLIC "-//W3C//DTD SVG 1.1//EN" "http://www.w3.org/Graphics/SVG/1.1/DTD/svg11.dtd">
<!-- Creator: CorelDRAW -->
<svg xmlns="http://www.w3.org/2000/svg" xml:space="preserve" width="2048px" height="2048px" style="shape-rendering:geometricPrecision; text-rendering:geometricPrecision; image-rendering:optimizeQuality; fill-rule:evenodd; clip-rule:evenodd"
viewBox="0 0 2048 2048"
 xmlns:xlink="http://www.w3.org/1999/xlink">
 <defs>
  <style type="text/css">
   <![CDATA[
    .fil0 {fill:none}
    .fil1 {fill:#717171}
    .fil4 {fill:#B7B7B7}
    .fil3 {fill:#DEDEDE}
    .fil2 {fill:#4D4D4D;fill-rule:nonzero}
   ]]>
  </style>
 </defs>
 <g id="Layer_x0020_1">
  <metadata id="CorelCorpID_0Corel-Layer"/>
  <g id="_495624032">
   <rect id="_495647312" class="fil0" width="2048" height="2048"/>
   <rect id="_495646232" class="fil0" x="255.999" y="255.999" width="1536" height="1536"/>
   <path id="_495634064" class="fil1" d="M1477.68 342.96l0 324.793 0 190.79 0 691.56 0 14.6953 -10.6169 10.5886 -240.085 224.823 -813.18 0c-22.1622,0 -42.2882,-9.04371 -56.8536,-23.6079 -14.5654,-14.5654 -23.6079,-34.6914 -23.6079,-56.8536l0 -1376.79c0,-22.1658 9.04253,-42.2894 23.6079,-56.8548 14.5654,-14.5654 34.689,-23.6079 56.8536,-23.6079l983.421 0c22.1658,0 42.2882,9.04253 56.8536,23.6079 14.5654,14.5654 23.6079,34.689 23.6079,56.8548z"/>
   <path id="_495636200" class="fil2" d="M1004.83 919.74c-12.2658,-15.352 -34.6583,-17.8524 -50.0103,-5.58662 -15.352,12.2658 -17.8536,34.6583 -5.58662,50.0103l143.042 178.802c-2.46378,2.51221 29.6811,27.2811 53.5382,2.61732l571.713 -571.714c13.9642,-13.963 13.9642,-36.6048 0,-50.5678 -13.963,-13.9642 -36.6048,-13.9642 -50.5678,0l-544.045 544.045 -118.084 -147.606z"/>
   <path id="_495621248" class="fil3" d="M526.406 887.567l-10.7315 0 -31.6984 0 0 -31.6973 0 -10.7315 0 -44.3398c0,-14.8122 2.49331,-29.3906 7.13032,-43.2922 4.73032,-14.1815 11.6126,-27.2953 20.2784,-38.8831 8.65749,-11.5748 19.3417,-21.9095 31.676,-30.5374 12,-8.3941 25.3134,-14.9599 39.5717,-19.2567l5.57953 -1.67953 16.4847 -4.963 13.1079 11.2772 4.43859 3.81851c2.38465,2.05276 4.97481,3.90355 7.7315,5.53465 2.88662,1.70788 5.68701,3.06851 8.36812,4.06418 2.48386,0.921261 5.40237,1.68662 8.72363,2.27717 3.01536,0.53504 6.18544,0.810237 9.47127,0.810237 3.23504,0 6.37087,-0.275197 9.37796,-0.810237 3.04725,-0.543308 6.00945,-1.34882 8.84883,-2.39882 3.09331,-1.14449 5.88426,-2.44488 8.33386,-3.88465 2.5311,-1.48819 5.05748,-3.30236 7.54371,-5.42717l4.72087 -4.03465 13.9441 -11.9173 17.2571 6.22205 5.84292 2.10709c14.8406,5.3504 27.7937,11.9551 38.9823,19.8933 11.7945,8.36812 21.6591,18.1772 29.726,29.5122 7.94056,11.1567 13.9382,23.5914 18.1264,37.3878 3.97087,13.076 6.23977,27.1677 6.93308,42.3674l0.124016 1.36181 0 0.46063 -0.124016 0 0.0271654 44.3303 0.00708662 10.7315 0.0212599 31.6973 -31.5945 0 -10.6961 0 -257.534 0z"/>
   <path id="_495646568" class="fil3" d="M733.822 619.218c-20.1284,20.1295 -47.9363,32.5843 -78.6367,32.5843 -30.7063,0 -58.5119,-12.4512 -78.6402,-32.5796 -20.1284,-20.1284 -32.5796,-47.9339 -32.5796,-78.6414 0,-30.7099 12.4524,-58.5154 32.5784,-78.6438 20.126,-20.126 47.9327,-32.5772 78.6414,-32.5772 30.704,0 58.5095,12.4524 78.639,32.5819 20.1295,20.1272 32.5819,47.9339 32.5819,78.639 0,30.7004 -12.4547,58.5083 -32.5843,78.6367z"/>
   <polygon id="_495639560" class="fil4" points="941.27,552.646 1334.64,552.646 1334.64,616.042 941.27,616.042 "/>
   <polygon id="_495644336" class="fil4" points="476.383,1267.86 1334.64,1267.86 1334.64,1331.26 476.383,1331.26 "/>
   <polygon id="_495630224" class="fil4" points="476.383,1482.43 1334.64,1482.43 1334.64,1545.82 476.383,1545.82 "/>
  </g>
 </g>
</svg>
