<?xml version="1.0" encoding="UTF-8"?>
<!DOCTYPE svg PUBLIC "-//W3C//DTD SVG 1.1//EN" "http://www.w3.org/Graphics/SVG/1.1/DTD/svg11.dtd">
<!-- Creator: CorelDRAW -->
<svg xmlns="http://www.w3.org/2000/svg" xml:space="preserve" width="2048px" height="2048px" style="shape-rendering:geometricPrecision; text-rendering:geometricPrecision; image-rendering:optimizeQuality; fill-rule:evenodd; clip-rule:evenodd"
viewBox="0 0 2048 2048"
 xmlns:xlink="http://www.w3.org/1999/xlink">
 <defs>
  <style type="text/css">
   <![CDATA[
    .str0 {stroke:#727272;stroke-width:31.9996}
    .fil5 {fill:none}
    .fil10 {fill:#202020}
    .fil0 {fill:#5F5F5F}
    .fil9 {fill:#727272}
    .fil6 {fill:#414141;fill-rule:nonzero}
    .fil8 {fill:#616161;fill-rule:nonzero}
    .fil7 {fill:#757575;fill-rule:nonzero}
    .fil3 {fill:#8F8F90;fill-rule:nonzero}
    .fil4 {fill:#B3B4B4;fill-rule:nonzero}
    .fil2 {fill:#BEBEBE;fill-rule:nonzero}
    .fil1 {fill:#E1E1E2;fill-rule:nonzero}
   ]]>
  </style>
 </defs>
 <g id="Layer_x0020_1">
  <metadata id="CorelCorpID_0Corel-Layer"/>
  <g id="_495629864">
   <circle id="_495634616" class="fil0" transform="matrix(3.06488E-014 1.15723 -1.15723 3.06488E-014 440.123 555.212)" r="59.9847"/>
   <circle id="_495629552" class="fil0" transform="matrix(3.06488E-014 1.15723 -1.15723 3.06488E-014 825.747 555.212)" r="59.9847"/>
   <circle id="_495624320" class="fil0" transform="matrix(3.06488E-014 1.15723 -1.15723 3.06488E-014 1222.78 555.212)" r="59.9847"/>
   <circle id="_495627176" class="fil0" transform="matrix(3.06488E-014 1.15723 -1.15723 3.06488E-014 1611.86 555.212)" r="59.9847"/>
   <polygon id="_495648248" class="fil1" points="1788.1,656.658 259.905,656.658 259.905,1426.91 495.357,1426.91 495.357,1662.36 1788.1,1662.36 "/>
   <polygon id="_495645272" class="fil2" points="259.905,1426.91 377.633,1544.64 495.357,1662.36 495.357,1426.91 "/>
   <path id="_495650168" class="fil3" d="M1563.44 547.662c0,-29.7921 24.1406,-53.9587 53.9445,-53.9587 29.804,0 53.9445,24.1666 53.9445,53.9587 0,29.7898 -24.1406,53.9563 -53.9445,53.9563 -29.804,0 -53.9445,-24.1666 -53.9445,-53.9563zm-395.657 0c0,-29.7921 24.137,-53.9587 53.9563,-53.9587 29.7921,0 53.9587,24.1666 53.9587,53.9587 0,29.7898 -24.1666,53.9563 -53.9587,53.9563 -29.8193,0 -53.9563,-24.1666 -53.9563,-53.9563zm-395.645 0c0,-29.7921 24.1547,-53.9587 53.9445,-53.9587 29.804,0 53.9705,24.1666 53.9705,53.9587 0,29.7898 -24.1666,53.9563 -53.9705,53.9563 -29.7898,0 -53.9445,-24.1666 -53.9445,-53.9563zm-395.641 0c0,-29.7921 24.1358,-53.9587 53.9552,-53.9587 29.804,0 53.9445,24.1666 53.9445,53.9587 0,29.7898 -24.1406,53.9563 -53.9445,53.9563 -29.8193,0 -53.9552,-24.1666 -53.9552,-53.9563zm1411.44 33.5221c0,-78.7075 -63.7949,-142.502 -142.507,-142.502l-1243.03 0c-78.6969,0 -142.492,63.7949 -142.492,142.502l0 75.4737 1528.03 0 0 -75.4737z"/>
   <path id="_495637496" class="fil1" d="M1615.24 571.428c-20.0221,0 -36.2433,-16.2201 -36.2433,-36.2575l0 -113.276c0,-20.0256 16.2213,-36.254 36.2433,-36.254 20.0173,0 36.2422,16.2284 36.2422,36.254l0 113.276c0,20.0374 -16.2248,36.2575 -36.2422,36.2575z"/>
   <path id="_495631064" class="fil4" d="M1579 535.171l0 -113.276c0,-20.0256 16.2213,-36.254 36.2433,-36.254l0 185.788c-20.0221,0 -36.2433,-16.2201 -36.2433,-36.2575z"/>
   <path id="_495641168" class="fil1" d="M1220.48 571.428c-20.0221,0 -36.2422,-16.2201 -36.2422,-36.2575l0 -113.276c0,-20.0256 16.2201,-36.254 36.2422,-36.254 20.0327,0 36.2575,16.2284 36.2575,36.254l0 113.276c0,20.0374 -16.2248,36.2575 -36.2575,36.2575z"/>
   <path id="_495625880" class="fil4" d="M1184.23 535.171l0 -113.276c0,-20.0256 16.2201,-36.254 36.2422,-36.254l0 185.788c-20.0221,0 -36.2422,-16.2201 -36.2422,-36.2575z"/>
   <path id="_495650384" class="fil1" d="M821.181 571.428c-20.0327,0 -36.2575,-16.2201 -36.2575,-36.2575l0 -113.276c0,-20.0256 16.2248,-36.254 36.2575,-36.254 20.0221,0 36.254,16.2284 36.254,36.254l0 113.276c0,20.0374 -16.2319,36.2575 -36.254,36.2575z"/>
   <path id="_495633128" class="fil4" d="M784.923 535.171l0 -113.276c0,-20.0256 16.2248,-36.254 36.2575,-36.254l0 185.788c-20.0327,0 -36.2575,-16.2201 -36.2575,-36.2575z"/>
   <path id="_495636704" class="fil1" d="M429.643 571.428c-20.0221,0 -36.2575,-16.2201 -36.2575,-36.2575l0 -113.276c0,-20.0256 16.2354,-36.254 36.2575,-36.254 20.0221,0 36.254,16.2284 36.254,36.254l0 113.276c0,20.0374 -16.2319,36.2575 -36.254,36.2575z"/>
   <path id="_495638552" class="fil4" d="M393.385 535.171l0 -113.276c0,-20.0256 16.2354,-36.254 36.2575,-36.254l0 185.788c-20.0221,0 -36.2575,-16.2201 -36.2575,-36.2575z"/>
  </g>
  <rect class="fil5" x="255.999" y="255.999" width="1536" height="1536"/>
  <g id="_495623864">
   <polygon id="_495641312" class="fil6" points="1031.38,867.827 1383.11,1028.22 1424.01,1046.87 1382.88,1065.05 1027.42,1222.16 1019.18,1225.8 1010.98,1222.08 664.365,1064.97 623.987,1046.67 664.287,1028.22 1014.62,867.827 1022.98,863.999 "/>
   <path id="_495648608" class="fil7" d="M1020.71 1221.96l0.35315 -0.157087 172.963 -76.8012 28.3028 -12.5681 -0.00708662 30.9851 -0.0236221 101.254 -0.00236221 9.01182 -6.71575 6.00473c-63.9839,43.7174 -129.36,65.2371 -194.784,65.1839l-0.0862205 0.0011811 0 -122.914z"/>
   <path id="_495641432" class="fil8" d="M1019.97 1222.29l0.735827 -0.327166 0 122.914c-65.7827,-0.0720473 -131.616,-21.9532 -196.135,-65.0268l-6.80552 -6.00237 0.00826772 -9.17245 0.0968505 -100.873 0.0307087 -31.017 28.2662 12.5209 173.803 76.9843z"/>
   <polyline id="_495639680" class="fil5 str0" points="1020.71,1014.8 724.467,1096.36 724.467,1136.48 "/>
   <g>
    <polygon id="_495639368" class="fil9" points="722.008,1152.59 753.481,1274.07 693.967,1273.81 "/>
    <circle id="_495625328" class="fil9" cx="722.422" cy="1152.2" r="19.7624"/>
   </g>
   <ellipse id="_495637232" class="fil10" cx="1018.02" cy="1020.35" rx="25.0452" ry="15.8682"/>
  </g>
  <rect class="fil5" width="2048" height="2048"/>
 </g>
</svg>
