<?xml version="1.0" encoding="UTF-8"?>
<!DOCTYPE svg PUBLIC "-//W3C//DTD SVG 1.1//EN" "http://www.w3.org/Graphics/SVG/1.1/DTD/svg11.dtd">
<!-- Creator: CorelDRAW -->
<svg xmlns="http://www.w3.org/2000/svg" xml:space="preserve" width="2048px" height="2048px" style="shape-rendering:geometricPrecision; text-rendering:geometricPrecision; image-rendering:optimizeQuality; fill-rule:evenodd; clip-rule:evenodd"
viewBox="0 0 2048 2048"
 xmlns:xlink="http://www.w3.org/1999/xlink">
 <defs>
  <style type="text/css">
   <![CDATA[
    .str0 {stroke:#DCDDDD;stroke-width:19.9996}
    .fil0 {fill:none}
    .fil1 {fill:#5F5F5F;fill-rule:nonzero}
    .fil3 {fill:#727272;fill-rule:nonzero}
    .fil2 {fill:#7E7E7E;fill-rule:nonzero}
    .fil4 {fill:#BBBBBC;fill-rule:nonzero}
    .fil5 {fill:#EDEDEE;fill-rule:nonzero}
   ]]>
  </style>
 </defs>
 <g id="Layer_x0020_1">
  <metadata id="CorelCorpID_0Corel-Layer"/>
  <rect class="fil0" x="255.998" y="256.001" width="1536" height="1536"/>
  <rect class="fil0" x="255.997" y="255.999" width="1536" height="1536"/>
  <g id="_513965248">
   <polygon id="_513948016" class="fil1" points="703.999,547.872 636.3,254.673 1403.76,254.673 1321.84,547.872 "/>
   <g>
    <path id="_513965464" class="fil2" d="M1546.18 424.424l0.708662 0.843308 108.569 129.404 13.2933 15.8457 -7.79292 19.3748 -330.614 821.952c-27.091,-41.8996 -73.4611,-81.8103 -123.4,-111.786l-0.0283465 -0.0177165 339.265 -875.617z"/>
    <path id="_513960208" class="fil3" d="M1071.88 1248.71l-0.680315 -0.238583 -3.86811 -0.33189 -0.628347 -0.0496063 318.857 -939.833 18.1831 -53.5961 35.817 42.6886 106.619 127.078 -339.265 875.617c-46.0926,-27.665 -95.2217,-46.8638 -135.034,-51.3343z"/>
   </g>
   <g>
    <path id="_513956800" class="fil2" d="M501.817 424.424l-0.708662 0.843308 -108.569 129.404 -13.2933 15.8457 7.79292 19.3748 330.614 821.952c27.091,-41.8996 73.4611,-81.8103 123.4,-111.786l0.0283465 -0.0177165 -339.265 -875.617z"/>
    <path id="_513944368" class="fil3" d="M976.116 1248.71l0.680315 -0.238583 3.86811 -0.33189 0.628347 -0.0496063 -318.857 -939.833 -18.1831 -53.5961 -35.817 42.6886 -106.619 127.078 339.265 875.617c46.0926,-27.665 95.2217,-46.8638 135.034,-51.3343z"/>
   </g>
   <path id="_513947464" class="fil4" d="M1248.43 1699.98c-57.7004,57.6804 -137.369,93.3627 -225.332,93.3627 -87.9993,0 -167.687,-35.687 -225.375,-93.3745 -57.6874,-57.6874 -93.3745,-137.375 -93.3745,-225.375 0,-42.2611 8.30197,-82.6229 23.3315,-119.582 15.6012,-38.3634 38.524,-73.0371 66.9863,-102.33 1.81181,-1.87087 3.5563,-3.56221 5.30433,-5.25591 1.00748,-0.975591 2.01969,-1.95591 2.63858,-2.57008l0.244488 -0.244488c2.1,-2.03858 5.1815,-4.79174 8.24646,-7.53071l0 -0.122835 0.48189 -0.429922 0.121654 0c24.7914,-21.9815 52.8556,-40.2177 83.3481,-53.7142 29.4969,-13.0583 61.4729,-21.7819 95.1887,-25.2862l0.61063 -0.121654c0.8563,-0.0708662 4.24489,-0.184252 7.59568,-0.297638 0.490158,-0.0165354 1.02756,-0.0354331 2.69646,-0.129921l-0.00354331 -0.0484252c0.512599,-0.0425197 2.42599,-0.159449 6.03308,-0.367323 1.13032,-0.0661418 3.12874,-0.144095 5.9315,-0.231496l0.122835 0c0.686221,-0.0212599 1.03465,-0.0744095 2.77205,-0.170079 1.85079,-0.101575 3.67796,-0.204331 7.20119,-0.196063l0 -0.121654c0.947245,0 3.12047,0.129921 5.28898,0.257481 0.105118,0.00590552 0.230315,0.0129921 1.59213,0.0129921l0.732284 0.122835c4.54607,0.122835 6.33308,0.246851 8.14371,0.368504 2.07402,0.140551 2.05984,0.166536 3.21733,0.230315 2.55827,0.140551 2.98229,0.152362 3.49252,0.168898 3.38859,0.108662 6.73583,0.217323 7.73977,0.3l0.366142 0.121654c33.6414,3.23622 65.7308,11.7366 95.4875,24.6414 30.6107,13.2768 58.6441,31.1386 83.2654,52.6607l0.0236221 -0.0283465c0.523229,0.445276 2.23347,1.99606 4.7752,4.32402l4.0878 3.74174 0.00826772 -0.00944883c6.45591,6.02481 -0.0921261,0.0318898 2.14606,2.07992 2.52284,2.3126 5.02087,4.6004 6.47953,6.07796 28.8886,29.263 52.1611,64.1221 68.0575,102.84 15.3709,37.4362 23.8465,78.2434 23.8465,120.84 0,87.9249 -35.739,167.626 -93.5209,225.386z"/>
   <path id="_513964792" class="fil5 str0" d="M1180.58 1632.1c-40.3229,40.3087 -95.9965,65.2441 -157.467,65.2441 -61.4953,0 -117.183,-24.939 -157.497,-65.2524 -40.3134,-40.3134 -65.2524,-96.0013 -65.2524,-157.497 0,-29.5335 5.80158,-57.7382 16.3051,-83.5666 10.9016,-26.8099 26.9221,-51.0402 46.8118,-71.5111 1.26614,-1.3063 2.48386,-2.48858 3.7063,-3.67205 0.703938,-0.681497 1.41142,-1.36654 1.8437,-1.79646l0.17126 -0.17126c1.46693,-1.42323 3.62126,-3.34843 5.7626,-5.263l0 -0.0850394 0.336614 -0.3 0.0850394 0c17.3244,-15.3614 36.9366,-28.1055 58.2461,-37.5366 20.6126,-9.12638 42.9579,-15.2221 66.5197,-17.6705l0.426378 -0.0862205c0.598819,-0.0484252 2.96693,-0.12874 5.30788,-0.207874 0.34252,-0.0106299 0.718111,-0.0248032 1.88504,-0.0897638l-0.00236221 -0.034252c0.357874,-0.0295276 1.69488,-0.112205 4.21536,-0.256299 0.790158,-0.046063 2.18622,-0.101575 4.14567,-0.162992l0.0850394 0c0.479528,-0.0141732 0.722835,-0.0507874 1.93701,-0.11811 1.29449,-0.0708662 2.57008,-0.142913 5.03268,-0.137008l0 -0.0850394c0.661418,0 2.18032,0.090945 3.69567,0.180709 0.0732284,0.00354331 0.161811,0.00826772 1.11378,0.00826772l0.511418 0.0850394c3.17599,0.0862205 4.42559,0.172441 5.69056,0.258662 1.44921,0.0980316 1.43976,0.115748 2.24882,0.16063 1.78701,0.0980316 2.08347,0.106299 2.44016,0.11811 2.36811,0.0755906 4.7067,0.152362 5.40827,0.209055l0.256299 0.0862205c23.5087,2.26063 45.9343,8.2004 66.7288,17.2193 21.3921,9.27757 40.9819,21.7606 58.1882,36.7996l0.0153543 -0.0188977c0.366142,0.31063 1.56142,1.39488 3.3378,3.02126l2.85591 2.61496 0.00708662 -0.00708662c4.51063,4.21063 -0.0649607,0.022441 1.49882,1.45394 1.76339,1.61575 3.50906,3.21496 4.52835,4.24725 20.1886,20.4508 36.4512,44.8099 47.5607,71.8666 10.741,26.1626 16.6642,54.6792 16.6642,84.4465 0,61.4434 -24.9756,117.139 -65.3552,157.505z"/>
  </g>
  <rect class="fil0" width="2048" height="2048"/>
 </g>
</svg>
