<?xml version="1.0" encoding="UTF-8"?>
<!DOCTYPE svg PUBLIC "-//W3C//DTD SVG 1.1//EN" "http://www.w3.org/Graphics/SVG/1.1/DTD/svg11.dtd">
<!-- Creator: CorelDRAW -->
<svg xmlns="http://www.w3.org/2000/svg" xml:space="preserve" width="2048px" height="2048px" style="shape-rendering:geometricPrecision; text-rendering:geometricPrecision; image-rendering:optimizeQuality; fill-rule:evenodd; clip-rule:evenodd"
viewBox="0 0 2048 2048"
 xmlns:xlink="http://www.w3.org/1999/xlink">
 <defs>
  <style type="text/css">
   <![CDATA[
    .fil0 {fill:none}
    .fil1 {fill:#727272;fill-rule:nonzero}
    .fil3 {fill:#7E7E7E;fill-rule:nonzero}
    .fil2 {fill:#919191;fill-rule:nonzero}
    .fil4 {fill:#BBBBBC;fill-rule:nonzero}
   ]]>
  </style>
 </defs>
 <g id="Layer_x0020_1">
  <metadata id="CorelCorpID_0Corel-Layer"/>
  <rect class="fil0" x="255.999" y="255.999" width="1536" height="1536"/>
  <path class="fil1" d="M1258.39 1626.44c-87.7642,39.8634 -191.634,0.891733 -231.503,-86.8855 -7.37245,-16.2319 -0.140551,-35.3693 16.0323,-42.7158 104.796,-47.5985 212.842,-96.6733 259.651,-117.934 16.2402,-7.37599 35.3433,-0.198425 42.7158,16.0323 39.8681,87.7772 0.943702,191.607 -86.8961,231.503z"/>
  <g id="_513965848">
   <path id="_513964888" class="fil2" d="M624.277 261.149l-0.493701 0.216142c-16.5,7.49528 -23.8016,26.9504 -16.3075,43.4504l45.1642 99.4383 -1.57205 0.714567c-104.38,53.9185 -180.763,145.608 -218.355,250.689 -37.1516,103.851 -36.6567,220.806 11.8122,327.52 1.31811,2.90197 88.415,196.187 138.3,390.824 24.5941,95.9552 40.0548,191.672 31.1091,262.908l-7.21418 57.2575 -7.33701 58.2426 53.4556 -24.2799 551.939 -250.693 -580.5 -1216.29z"/>
   <path id="_513949120" class="fil3" d="M667.236 277.674c-7.28386,-16.0347 -25.8591,-23.3811 -42.0449,-16.9075 -0.305906,0.121654 -0.61063,0.250394 -0.914174,0.382677l580.5 1216.29 0.0625985 -0.0283465 478.264 -217.229 53.4567 -24.2788 -48.6874 -32.7969 -47.863 -32.2406c-59.5004,-40.1209 -121.396,-114.742 -177.475,-196.399 -113.749,-165.631 -202.035,-358.403 -203.353,-361.305 -47.9422,-105.554 -130.458,-184.215 -227.876,-226.677 -97.1587,-42.3485 -209.002,-48.6744 -316.138,-9.79961l-2.10118 0.954331 -0.356693 0.158268 -45.4748 -100.121z"/>
  </g>
  <g id="_513967048">
   <polygon id="_513945352" class="fil4" points="606.348,1697.12 601.914,1732.31 1193.17,1453.11 1180.27,1426.1 "/>
   <polygon id="_513953344" class="fil4" points="1180.27,1426.1 1193.17,1453.11 1702.18,1212.74 1687.87,1203.1 1673.29,1193.28 "/>
  </g>
  <path class="fil1" d="M667.236 277.674c-7.49528,-16.5012 -26.9504,-23.804 -43.4528,-16.3087 -16.5,7.49528 -23.8016,26.9504 -16.3075,43.4504l45.1642 99.4383 -1.57205 0.714567 64.1008 -28.2862 -2.10118 0.954331 -0.356693 0.158268 -45.4748 -100.121z"/>
  <rect class="fil0" width="2048" height="2048"/>
 </g>
</svg>
