<?xml version="1.0" encoding="UTF-8"?>
<!DOCTYPE svg PUBLIC "-//W3C//DTD SVG 1.1//EN" "http://www.w3.org/Graphics/SVG/1.1/DTD/svg11.dtd">
<!-- Creator: CorelDRAW -->
<svg xmlns="http://www.w3.org/2000/svg" xml:space="preserve" width="2048px" height="2048px" style="shape-rendering:geometricPrecision; text-rendering:geometricPrecision; image-rendering:optimizeQuality; fill-rule:evenodd; clip-rule:evenodd"
viewBox="0 0 2048 2048"
 xmlns:xlink="http://www.w3.org/1999/xlink">
 <defs>
  <style type="text/css">
   <![CDATA[
    .fil0 {fill:none}
    .fil4 {fill:#5D5D5D}
    .fil8 {fill:#616161}
    .fil7 {fill:#CBCBCC}
    .fil2 {fill:#D9D9DA}
    .fil6 {fill:#DCDDDD}
    .fil5 {fill:#F0F0F0}
    .fil3 {fill:#919191;fill-rule:nonzero}
    .fil1 {fill:#A4A4A5;fill-rule:nonzero}
   ]]>
  </style>
 </defs>
 <g id="Layer_x0020_1">
  <metadata id="CorelCorpID_0Corel-Layer"/>
  <rect class="fil0" x="255.999" y="255.999" width="1536" height="1536"/>
  <g id="_513957520">
   <path id="_513966088" class="fil1" d="M524.204 346.473c325.888,0 693.009,0 1018.9,0 21.6898,0 41.3811,9.00355 55.6335,23.5063 14.2524,14.5016 23.1012,34.5414 23.1012,56.6079l0 1285.3c0,22.0666 -8.85001,42.1052 -23.1012,56.6079 -14.2536,14.5016 -33.9461,23.5063 -55.6335,23.5063l-1018.9 0c-21.6874,0 -41.38,-9.00473 -55.6335,-23.5063 -14.2536,-14.5016 -23.1012,-34.5414 -23.1012,-56.6079 0,-428.432 0,-856.867 0,-1285.3 0,-22.0689 8.84764,-42.1063 23.1012,-56.6079 14.2524,-14.5028 33.9437,-23.5063 55.6335,-23.5063z"/>
   <path id="_513942136" class="fil2" d="M524.204 384.153c-10.9335,0 -21.1252,4.46811 -28.7599,12.2374 -7.94174,8.08111 -12.2953,18.8752 -12.2953,30.1973 0,428.433 0,856.866 0,1285.3 0,11.3197 4.35237,22.1162 12.2941,30.1961 7.63465,7.76694 17.8288,12.2386 28.761,12.2386l1018.9 0c10.9335,0 21.1264,-4.46929 28.761,-12.2374 7.94174,-8.08111 12.2953,-18.8776 12.2953,-30.1973l0 -1285.3c0,-11.3209 -4.35473,-22.1173 -12.2953,-30.1973 -7.63583,-7.7693 -17.8264,-12.2374 -28.761,-12.2374 -339.631,0 -679.263,0 -1018.9,0z"/>
   <path id="_513964840" class="fil3" d="M525.474 256.738c331.144,0 595.525,0 926.669,0 22.0394,0 42.0485,9.00355 56.5311,23.5063 14.4827,14.5016 23.4732,34.5402 23.4732,56.6079l0 1285.3c0,22.0666 -8.99292,42.104 -23.4732,56.6079 -14.4839,14.5004 -34.4941,23.5063 -56.5311,23.5063l-926.669 0c-22.037,0 -42.0473,-9.00591 -56.5311,-23.5063 -14.4815,-14.5016 -23.4732,-34.5414 -23.4732,-56.6079 0,-428.432 0,-856.867 0,-1285.3 0,-22.0701 8.99174,-42.1063 23.4732,-56.6079 14.4827,-14.5028 34.4918,-23.5063 56.5311,-23.5063z"/>
   <polygon id="_513957040" class="fil4" points="1160.17,575.335 1011.67,724.351 1011.67,256.738 1309.09,256.738 1309.09,723.745 "/>
   <path id="_513969232" class="fil4" d="M429.24 632.845l65.2335 0c6.61654,0 12.0284,12.7181 12.0284,28.2591l0 3.02481c0,15.541 -5.413,28.2591 -12.0284,28.2591l-65.2335 0c-6.61536,0 -12.0295,-12.7158 -12.0295,-28.2591l0 -3.02481c0,-15.5433 5.413,-28.2591 12.0295,-28.2591z"/>
   <path id="_513946048" class="fil4" d="M429.24 844.101l65.2335 0c6.61654,0 12.0284,12.7181 12.0284,28.2591l0 3.02599c0,15.5398 -5.413,28.2579 -12.0284,28.2579l-65.2335 0c-6.61536,0 -12.0295,-12.7158 -12.0295,-28.2579l0 -3.02599c0,-15.5433 5.413,-28.2591 12.0295,-28.2591z"/>
   <path id="_513964456" class="fil4" d="M429.24 1055.36l65.2335 0c6.61654,0 12.0284,12.7181 12.0284,28.2591l0 3.02481c0,15.541 -5.413,28.2591 -12.0284,28.2591l-65.2335 0c-6.61536,0 -12.0295,-12.7158 -12.0295,-28.2591l0 -3.02481c0,-15.5433 5.413,-28.2591 12.0295,-28.2591z"/>
   <path id="_513951088" class="fil4" d="M429.24 1266.62l65.2335 0c6.61654,0 12.0284,12.7181 12.0284,28.2591l0 3.02481c0,15.541 -5.413,28.2591 -12.0284,28.2591l-65.2335 0c-6.61536,0 -12.0295,-12.7158 -12.0295,-28.2591l0 -3.02481c0,-15.5433 5.413,-28.2591 12.0295,-28.2591z"/>
  </g>
  <g id="_513965752">
   <g>
    <circle id="_513941440" class="fil5" cx="909.972" cy="997.803" r="200.013"/>
    <rect id="_513958648" class="fil6" transform="matrix(0.453997 -0.435594 0.5288 0.551141 1038.87 1162.06)" width="59.1272" height="178.214"/>
    <path id="_513965944" class="fil7" d="M773.514 858.621c77.8241,-74.6705 201.444,-72.1123 276.115,5.71182 74.6693,77.8241 72.1111,201.445 -5.71182,276.115 -77.8253,74.6693 -201.447,72.1123 -276.115,-5.71182 -74.6705,-77.8241 -72.1134,-201.445 5.71182,-276.115zm-25.0973 -26.1579c92.2701,-88.5296 238.838,-85.4965 327.368,6.77245 88.532,92.2713 85.5001,238.839 -6.77127,327.37 -92.2701,88.5296 -238.838,85.4977 -327.369,-6.77363 -88.5308,-92.269 -85.4989,-238.838 6.77245,-327.369z"/>
    <polygon id="_513942592" class="fil8" points="1254.17,1305.87 1266.98,1317.69 1214.8,1374.2 1203.43,1360.81 "/>
    <polygon id="_513963520" class="fil8" points="1213.97,1268.78 1226.78,1280.59 1179.3,1332.38 1167.93,1318.99 "/>
   </g>
   <path id="_513953872" class="fil7" d="M1122.85 1248.89l26.1508 -25.0902c4.7941,-4.6004 13.7232,-2.30433 20.7543,4.18347l243.255 224.451c19.0063,17.537 1.70315,46.5603 -4.97835,52.9713l-14.5299 13.9406c-6.6815,6.41103 -36.3957,22.5 -53.1319,2.78386l-214.199 -252.33c-6.19252,-7.29449 -8.11536,-16.3099 -3.32126,-20.9103z"/>
  </g>
  <rect class="fil0" width="2048" height="2048"/>
 </g>
</svg>
