<?xml version="1.0" encoding="UTF-8"?>
<!DOCTYPE svg PUBLIC "-//W3C//DTD SVG 1.1//EN" "http://www.w3.org/Graphics/SVG/1.1/DTD/svg11.dtd">
<!-- Creator: CorelDRAW -->
<svg xmlns="http://www.w3.org/2000/svg" xml:space="preserve" width="2048px" height="2048px" style="shape-rendering:geometricPrecision; text-rendering:geometricPrecision; image-rendering:optimizeQuality; fill-rule:evenodd; clip-rule:evenodd"
viewBox="0 0 2048 2048"
 xmlns:xlink="http://www.w3.org/1999/xlink">
 <defs>
  <style type="text/css">
   <![CDATA[
    .fil12 {fill:none}
    .fil7 {fill:#3F3F3F;fill-rule:nonzero}
    .fil4 {fill:#414141;fill-rule:nonzero}
    .fil5 {fill:#474747;fill-rule:nonzero}
    .fil2 {fill:#4B4B4B;fill-rule:nonzero}
    .fil11 {fill:#525252;fill-rule:nonzero}
    .fil9 {fill:#6A6A6A;fill-rule:nonzero}
    .fil0 {fill:#868686;fill-rule:nonzero}
    .fil10 {fill:#ABABAB;fill-rule:nonzero}
    .fil8 {fill:#B3B3B3;fill-rule:nonzero}
    .fil6 {fill:#BEBEBE;fill-rule:nonzero}
    .fil3 {fill:#BFC0C0;fill-rule:nonzero}
    .fil1 {fill:#CECECE;fill-rule:nonzero}
   ]]>
  </style>
 </defs>
 <g id="Layer_x0020_1">
  <metadata id="CorelCorpID_0Corel-Layer"/>
  <g id="_513965104">
   <g>
    <path id="_513949864" class="fil0" d="M1354.71 820.465c0,-183.123 -148.417,-331.562 -331.553,-331.562 -183.097,0 -331.543,148.439 -331.543,331.562 0,183.108 148.446,331.553 331.543,331.553 183.136,0 331.553,-148.446 331.553,-331.553z"/>
    <path id="_513949768" class="fil1" d="M1297.78 825.56c-1.1374,0 -2.22756,0.380315 -3.36496,0.509056 -20.0114,-174.526 -136.63,-308.609 -277.948,-308.609 -141.584,0 -258.397,134.61 -278.074,309.618 -22.8792,6.87875 -40.0689,36.5729 -40.0689,72.1642 0,38.8583 20.5843,70.363 46.6146,73.1398 18.6154,89.8737 63.4997,165.822 123.341,213.804l0 84.7997 281.303 0 -0.427559 -85.6123c67.5981,-46.9571 118.986,-116.183 139.018,-213.881 3.12402,0.889371 6.32481,1.43386 9.60591,1.43386 27.7418,0 50.2217,-32.9941 50.2217,-73.6843 0,-40.6949 -22.4799,-73.6819 -50.2217,-73.6819z"/>
    <polygon id="_513944104" class="fil2" points="1613.19,1493.11 1237.08,1240.84 1023.16,1495.38 809.254,1240.84 433.139,1493.11 433.387,1792 1614.86,1792 "/>
    <path id="_513960976" class="fil2" d="M1023.16 255.999l-571.724 209.24 0 50.1107 250.493 67.7741 0 151.741c0,0 99.6662,-28.5201 321.231,-42.5752 215.823,12.9284 321.244,42.5752 321.244,42.5752l0 -151.741 250.482 -67.7741 0 -50.1107 -571.726 -209.24z"/>
    <path id="_513962272" class="fil3" d="M1262.03 1052.02c0.47126,-1.01693 0.943702,-2.05276 1.40788,-3.08032 8.37757,-8.81221 16.2744,-18.0685 23.654,-27.7595 -7.73032,10.8189 -16.0996,21.1205 -25.0618,30.8398z"/>
    <path id="_513948832" class="fil4" d="M1338.26 733.263c-0.11811,-0.0259843 -0.238583,-0.0625985 -0.359055,-0.0921261l0 -1.22953c0.120473,0.442914 0.240945,0.878741 0.359055,1.32165z"/>
    <path id="_513960400" class="fil5" d="M1016.66 539.746l-0.193701 -22.2862c0.0649607,0 0.131102,0 0.193701,0l0 22.2862z"/>
    <g>
     <path id="_513966184" class="fil6" d="M1237.08 1240.84c0,0 -10.6264,-80.4627 -55.0052,-55.3642 -81.0426,45.8457 -150.194,64.8686 -167.071,68.0776 -16.8862,-3.20906 -80.3398,-17.0988 -161.385,-62.9552 -44.367,-25.0973 -44.367,50.2418 -44.367,50.2418l213.907 262.464 213.92 -262.464z"/>
     <path id="_513957256" class="fil6" d="M1023.16 1495.38l-0.26811 -0.322441 -7.88741 -241.504c1.9689,-0.369685 4.65118,-0.962599 7.99016,-1.79291 25.2095,-6.23386 87.5068,-25.7906 159.08,-66.2847 5.99292,-3.38386 11.3551,-4.84725 16.174,-4.84725 30.8788,0 38.8311,60.2115 38.8311,60.2115l-213.92 254.54z"/>
    </g>
    <polygon id="_513964552" class="fil2" points="1023.16,1503.3 1022.89,1495.06 1023.16,1495.38 1237.08,1240.84 1237.08,1240.84 1023.16,1495.38 "/>
    <polygon id="_513943792" class="fil7" points="1614.86,1792 1023.16,1792 1023.16,1495.38 1237.08,1240.84 1613.19,1493.11 "/>
    <path id="_513966616" class="fil4" d="M1016.66 692.706l0 -203.137 0 202.72c1.1185,0.0625985 2.22992,0.12874 3.34725,0.201969 -1.11732,0.0755906 -2.23583,0.13937 -3.34725,0.214961z"/>
    <polygon id="_513968056" class="fil8" points="1016.66,258.385 1016.66,255.999 1019.92,257.192 "/>
    <path id="_513941512" class="fil9" d="M1337.9 734.865c0,0 -22.8307,-6.42756 -68.9847,-14.5925 -0.157087,-0.4063 -0.305906,-0.805512 -0.462992,-1.21181 35.9091,6.16772 58.989,11.5134 69.4477,14.1106l0 1.6937z"/>
    <path id="_513939568" class="fil10" d="M1268.92 720.272l0 0c-28.0181,-4.95709 -64.6382,-10.5508 -109.96,-15.7595 0.222047,-0.212599 0.453544,-0.432284 0.673229,-0.655512 44.3055,4.96536 80.5371,10.3382 108.823,15.2032 0.157087,0.4063 0.305906,0.805512 0.462992,1.21181z"/>
    <path id="_513942832" class="fil9" d="M1158.96 704.513c-1.93228,-0.220866 -3.86693,-0.432284 -5.82756,-0.655512 -38.3209,-4.29922 -82.6784,-8.28544 -133.125,-11.3658 1.04528,-0.0732284 2.1,-0.13937 3.15355,-0.201969 51.841,3.1063 97.3099,7.17402 136.472,11.5677 -0.219685,0.223229 -0.451181,0.442914 -0.673229,0.655512z"/>
    <path id="_513956872" class="fil11" d="M1497.96 1008.91c-23.1827,-1.03465 -46.5036,-13.0925 -72.8138,-36.1736 -7.81182,-6.84449 10.5791,-52.9867 39.6154,-115 -8.32205,-2.89488 -14.341,-10.7161 -14.341,-20.0291 0,-11.7437 9.53387,-21.2776 21.2776,-21.2776l0.232677 0 0 -388.139c0,-2.65276 0.351969,-5.22402 1.0063,-7.67599 3.09921,-11.4461 12.9543,-20.1024 25.0229,-21.4441 14.6587,1.61929 26.0504,14.0374 26.0504,29.1201l0 388.139 3.60709 0c11.7614,0 21.2953,9.53387 21.2953,21.2776 0,10.4114 -7.48111,19.0299 -17.3469,20.8807 28.9618,61.8733 46.9855,107.334 39.2162,114.149 -26.3067,23.0811 -49.6394,35.139 -72.8221,36.1736z"/>
   </g>
   <rect id="_513953488" class="fil12" x="255.999" y="255.999" width="1536" height="1536"/>
  </g>
  <rect class="fil12" width="2048" height="2048"/>
 </g>
</svg>
