<?xml version="1.0" encoding="UTF-8"?>
<!DOCTYPE svg PUBLIC "-//W3C//DTD SVG 1.1//EN" "http://www.w3.org/Graphics/SVG/1.1/DTD/svg11.dtd">
<!-- Creator: CorelDRAW -->
<svg xmlns="http://www.w3.org/2000/svg" xml:space="preserve" width="2048px" height="2048px" style="shape-rendering:geometricPrecision; text-rendering:geometricPrecision; image-rendering:optimizeQuality; fill-rule:evenodd; clip-rule:evenodd"
viewBox="0 0 2048 2048"
 xmlns:xlink="http://www.w3.org/1999/xlink">
 <defs>
  <style type="text/css">
   <![CDATA[
    .fil0 {fill:none}
    .fil7 {fill:#727272}
    .fil3 {fill:#7E7E7E}
    .fil1 {fill:#8B8C8C}
    .fil5 {fill:#BBBBBC}
    .fil4 {fill:#CBCBCC}
    .fil2 {fill:#414141;fill-rule:nonzero}
    .fil6 {fill:#FBFBFC;fill-rule:nonzero}
   ]]>
  </style>
 </defs>
 <g id="Layer_x0020_1">
  <metadata id="CorelCorpID_0Corel-Layer"/>
  <rect class="fil0" x="255.999" y="255.999" width="1536" height="1536"/>
  <g id="_544172240">
   <path id="_544171256" class="fil1" d="M700.078 461.071l647.846 0 68.1957 4.52363c72.8516,11.9327 138.22,46.8331 188.345,96.9591 62.6162,62.615 101.483,149.016 101.483,244.08l0 540.967 -1363.89 0 -0.00236221 -540.967c0,-95.0635 38.8666,-181.465 101.483,-244.08 50.1248,-50.126 115.493,-85.0264 188.346,-96.9591l68.1957 -4.52363z"/>
   <path id="_544172456" class="fil2" d="M631.882 465.594l0 -72.717 68.1957 0 0 68.1934 -12.4606 0c-18.9638,0 -37.5815,1.55197 -55.7351,4.52363z"/>
   <path id="_544169984" class="fil3" d="M342.056 1347.6l1363.89 0 0 305.345c0,37.9642 -15.5067,72.4512 -40.487,97.4316 -24.9803,24.9815 -59.4674,40.487 -97.4316,40.487l-1088.06 0c-37.9642,0 -72.4512,-15.5055 -97.4316,-40.487 -24.9815,-24.9803 -40.487,-59.4674 -40.487,-97.4316l0.00236221 -305.345z"/>
   <path id="_544160912" class="fil2" d="M832.202 257.137l383.596 0c26.9929,0 51.5091,11.0197 69.2599,28.7693 17.7496,17.7496 28.7693,42.267 28.7693,69.2599l0 72.4571 0 34.0985 -34.0985 0 -511.458 0 -34.0985 0 0 -34.0985 0 -72.4571c0,-26.9929 11.0197,-51.5103 28.7693,-69.2599 17.7508,-17.7496 42.267,-28.7693 69.2599,-28.7693zm383.596 68.1957l-383.596 0c-8.16969,0 -15.6213,3.36614 -21.0437,8.78977 -5.42245,5.42245 -8.78977,12.874 -8.78977,21.0437l0 38.3587 443.263 0 0 -38.3587c0,-8.16969 -3.36733,-15.6213 -8.78977,-21.0437 -5.42363,-5.42363 -12.8752,-8.78977 -21.0437,-8.78977z"/>
   <g>
    <rect id="_544178336" class="fil4" x="1347.92" y="461.071" width="51.1471" height="409.167"/>
    <rect id="_544163696" class="fil5" x="1288.25" y="870.238" width="170.487" height="170.487"/>
    <polygon id="_544184720" class="fil6" points="1424.64,904.335 1322.35,904.335 1322.35,1006.63 1424.64,1006.63 "/>
   </g>
   <g>
    <rect id="_544182776" class="fil4" x="640.407" y="461.071" width="51.1471" height="409.167"/>
    <rect id="_544180880" class="fil5" x="580.737" y="870.238" width="170.487" height="170.487"/>
    <polygon id="_544174928" class="fil6" points="717.126,904.335 614.835,904.335 614.835,1006.63 717.126,1006.63 "/>
   </g>
   <polygon id="_544185632" class="fil7" points="546.639,1040.72 785.319,1040.72 785.319,1074.82 546.639,1074.82 "/>
   <polygon id="_544162448" class="fil7" points="1262.68,1040.72 1501.36,1040.72 1501.36,1074.82 1262.68,1074.82 "/>
  </g>
  <rect class="fil0" width="2048" height="2048"/>
 </g>
</svg>
