<?xml version="1.0" encoding="UTF-8"?>
<!DOCTYPE svg PUBLIC "-//W3C//DTD SVG 1.1//EN" "http://www.w3.org/Graphics/SVG/1.1/DTD/svg11.dtd">
<!-- Creator: CorelDRAW -->
<svg xmlns="http://www.w3.org/2000/svg" xml:space="preserve" width="2048px" height="2048px" style="shape-rendering:geometricPrecision; text-rendering:geometricPrecision; image-rendering:optimizeQuality; fill-rule:evenodd; clip-rule:evenodd"
viewBox="0 0 2048 2048"
 xmlns:xlink="http://www.w3.org/1999/xlink">
 <defs>
  <style type="text/css">
   <![CDATA[
    .fil0 {fill:none}
    .fil3 {fill:#727272}
    .fil2 {fill:#BCBCBC}
    .fil1 {fill:#D7D7D7}
    .fil5 {fill:#444444;fill-rule:nonzero}
    .fil4 {fill:#6A6A6A;fill-rule:nonzero}
   ]]>
  </style>
 </defs>
 <g id="Layer_x0020_1">
  <metadata id="CorelCorpID_0Corel-Layer"/>
  <rect class="fil0" x="255.999" y="256" width="1536" height="1536"/>
  <g id="_493154200">
   <g>
    <path id="_493167496" class="fil1" d="M1472.47 1400.52c9.60591,0.53504 19.128,2.12126 28.4091,4.72441 13.4221,3.76418 25.7504,9.33898 36.9827,16.3559l0 -425.89c0,-103.413 -79.3312,-188.06 -176.291,-188.06l-682.322 0c-96.9603,0 -176.3,84.6272 -176.3,188.06l0 430.677c13.0973,-9.30237 27.1996,-21.0543 44.1815,-21.1417l925.34 -4.72559z"/>
    <path id="_493159816" class="fil2" d="M1020.4 280.135c143.228,0 259.337,116.105 259.337,259.331 0,143.226 -116.11,259.336 -259.337,259.336 -143.226,0 -259.337,-116.11 -259.337,-259.336 0,-143.226 116.111,-259.331 259.337,-259.331z"/>
    <path id="_493170592" class="fil3" d="M1426.97 1695.7c-164.715,-55.7067 -306.994,-47.1189 -412.875,72.1666 -94.3288,-97.5969 -221.908,-129.839 -400.27,-78.7335 0,-242.678 0,-483.871 0,-725.577 165.114,-21.7878 290.301,6.23032 406.574,139.786 100.808,-146.702 251.214,-146.942 406.571,-138.026 0,243.461 0,486.923 0,730.384z"/>
    <path id="_493165048" class="fil2" d="M1465.14 1176.47c61.9182,0 112.109,66.1878 112.109,147.839 0,81.665 -50.191,147.851 -112.109,147.851 -61.9193,0 -112.112,-66.1855 -112.112,-147.851 0,-81.6509 50.1922,-147.839 112.112,-147.839z"/>
    <path id="_493156288" class="fil2" d="M582.861 1176.47c61.917,0 112.109,66.1878 112.109,147.839 0,81.665 -50.1922,147.851 -112.109,147.851 -61.9193,0 -112.112,-66.1855 -112.112,-147.851 0,-81.6509 50.1922,-147.839 112.112,-147.839z"/>
   </g>
   <g>
    <polygon id="_493173880" class="fil4" points="387.115,1767.86 1660.89,1767.86 1660.89,1631.39 387.115,1631.39 "/>
    <polygon id="_493167256" class="fil5" points="1660.89,1767.86 1024.19,1767.86 1024.19,1631.39 1347.98,1631.39 1660.89,1631.39 "/>
   </g>
  </g>
  <rect class="fil0" width="2048" height="2048"/>
 </g>
</svg>
