<?xml version="1.0" encoding="UTF-8"?>
<!DOCTYPE svg PUBLIC "-//W3C//DTD SVG 1.1//EN" "http://www.w3.org/Graphics/SVG/1.1/DTD/svg11.dtd">
<!-- Creator: CorelDRAW -->
<svg xmlns="http://www.w3.org/2000/svg" xml:space="preserve" width="2048px" height="2048px" style="shape-rendering:geometricPrecision; text-rendering:geometricPrecision; image-rendering:optimizeQuality; fill-rule:evenodd; clip-rule:evenodd"
viewBox="0 0 2048 2048"
 xmlns:xlink="http://www.w3.org/1999/xlink">
 <defs>
  <style type="text/css">
   <![CDATA[
    .fil5 {fill:none}
    .fil0 {fill:#414141}
    .fil4 {fill:#585959}
    .fil3 {fill:#5D5D5D}
    .fil2 {fill:#6A6A6A}
    .fil1 {fill:#C7C7C7}
   ]]>
  </style>
 </defs>
 <g id="Layer_x0020_1">
  <metadata id="CorelCorpID_0Corel-Layer"/>
  <path class="fil0" d="M1616 414.97l0 1218.07c0,40.8485 -17.0008,77.902 -44.4213,104.728 -27.3107,26.7189 -64.8603,43.2803 -106.091,43.2803l-882.983 0c-41.2323,0 -78.7784,-16.5626 -106.086,-43.2792 -27.4193,-26.8276 -44.4201,-63.8847 -44.4201,-104.73l0 -1218.06c0,-40.8402 17.002,-77.9008 44.4248,-104.734 27.3047,-26.7201 64.852,-43.2874 106.081,-43.2874l882.983 0c41.2288,0 78.782,16.5638 106.089,43.2827 27.4217,26.8299 44.4237,63.8871 44.4237,104.732z"/>
  <path class="fil1" d="M1572.47 414.97c0,-27.9626 -11.4236,-54.1347 -31.337,-73.6193 -20.2606,-19.8236 -47.2949,-30.867 -75.6473,-30.867l-882.983 0c-28.3512,0 -55.3784,11.0457 -75.6367,30.8693 -19.9122,19.4858 -31.3406,45.6615 -31.3406,73.6241l0 1218.06c0,27.9614 11.4213,54.1347 31.3335,73.6158 20.2618,19.8248 47.2914,30.8646 75.6438,30.8646l882.983 0c28.3547,0 55.3867,-11.041 75.6508,-30.867 19.9134,-19.4823 31.3335,-45.6508 31.3335,-73.6134l0 -1218.07z"/>
  <polygon class="fil2" points="1089.84,1496.16 972.004,1731.83 919.53,1705.6 1037.36,1469.92 "/>
  <polygon class="fil2" points="1267.76,1422.23 1267.76,1735.64 1198.12,1735.64 1198.12,1422.23 "/>
  <polygon class="fil2" points="1163.3,1422.23 1163.3,1735.64 1093.65,1735.64 1093.65,1422.23 "/>
  <polygon class="fil2" points="1372.24,1422.23 1372.24,1735.64 1302.59,1735.64 1302.59,1422.23 "/>
  <polygon class="fil3" points="1267.76,910.161 1267.76,1223.57 1198.12,1223.57 1198.12,910.161 "/>
  <polygon class="fil3" points="640.948,910.161 640.948,1223.57 571.3,1223.57 571.3,910.161 "/>
  <polygon class="fil3" points="1163.3,910.161 1163.3,1223.57 1093.65,1223.57 1093.65,910.161 "/>
  <polygon class="fil3" points="1372.24,910.161 1372.24,1223.57 1302.59,1223.57 1302.59,910.161 "/>
  <polygon class="fil0" points="432.382,1223.57 1616,1223.57 1616,1274.35 432.382,1274.35 "/>
  <polygon class="fil4" points="989.18,422.633 989.18,736.045 919.531,736.045 919.531,422.633 "/>
  <polygon class="fil4" points="640.948,422.633 640.948,736.045 571.3,736.045 571.3,422.633 "/>
  <polygon class="fil4" points="884.711,422.633 884.711,736.045 815.062,736.045 815.062,422.633 "/>
  <polygon class="fil4" points="1128.47,422.633 1128.47,736.045 1058.82,736.045 1058.82,422.633 "/>
  <polygon class="fil4" points="1372.24,422.633 1372.24,736.045 1302.59,736.045 1302.59,422.633 "/>
  <polygon class="fil0" points="432.382,736.043 1616,736.043 1616,786.819 432.382,786.819 "/>
  <rect class="fil5" x="255.999" y="255.999" width="1536" height="1536"/>
  <rect class="fil5" width="2048" height="2048"/>
 </g>
</svg>
